<!DOCTYPE svg PUBLIC "-//W3C//DTD SVG 1.1//EN" "http://www.w3.org/Graphics/SVG/1.1/DTD/svg11.dtd">
<svg xmlns="http://www.w3.org/2000/svg" xmlns:xlink="http://www.w3.org/1999/xlink" xmlns:jfreesvg="http://www.jfree.org/jfreesvg/svg" width="619" height="392">
<defs><clipPath id="clip-0"><path d="M 0 0 L 619 0 L 619 392 L 0 392 L 0 0 M 0 0"/></clipPath>
<clipPath id="clip-1"><path d="M -309.5 -196 L 309.5 -196 L 309.5 196 L -309.5 196 L -309.5 -196 M -309.5 -196"/></clipPath>
<clipPath id="clip-2"><path d="M -277.84 -207.62 L 338.68 -152.36 L 303.69 238.07 L -312.84 182.82 L -277.84 -207.62 M -277.84 -207.62"/></clipPath>
<clipPath id="clip-3"><path d="M -276.82 -211.05 L 339.71 -155.79 L 304.72 234.64 L -311.81 179.39 L -276.82 -211.05 M -276.82 -211.05"/></clipPath>
<clipPath id="clip-4"><path d="M -278.14 -214.34 L 338.38 -159.08 L 303.39 231.35 L -313.14 176.1 L -278.14 -214.34 M -278.14 -214.34"/></clipPath>
<clipPath id="clip-5"><path d="M -277.11 -217.7 L 339.41 -162.44 L 304.42 227.99 L -312.11 172.74 L -277.11 -217.7 M -277.11 -217.7"/></clipPath>
<clipPath id="clip-6"><path d="M -278.44 -220.92 L 338.09 -165.67 L 303.1 224.77 L -313.43 169.51 L -278.44 -220.92 M -278.44 -220.92"/></clipPath>
<clipPath id="clip-7"><path d="M -277.41 -224.22 L 339.12 -168.96 L 304.13 221.47 L -312.4 166.22 L -277.41 -224.22 M -277.41 -224.22"/></clipPath>
<clipPath id="clip-8"><path d="M -278.73 -227.38 L 337.8 -172.12 L 302.81 218.32 L -313.72 163.06 L -278.73 -227.38 M -278.73 -227.38"/></clipPath>
<clipPath id="clip-9"><path d="M -277.69 -230.61 L 338.84 -175.35 L 303.84 215.09 L -312.68 159.83 L -277.69 -230.61 M -277.69 -230.61"/></clipPath>
<clipPath id="clip-10"><path d="M -279.01 -233.7 L 337.52 -178.44 L 302.52 211.99 L -314 156.73 L -279.01 -233.7 M -279.01 -233.7"/></clipPath>
<clipPath id="clip-11"><path d="M -277.97 -236.87 L 338.56 -181.61 L 303.56 208.82 L -312.96 153.56 L -277.97 -236.87 M -277.97 -236.87"/></clipPath>
<clipPath id="clip-12"><path d="M -279.29 -239.91 L 337.24 -184.65 L 302.25 205.79 L -314.28 150.53 L -279.29 -239.91 M -279.29 -239.91"/></clipPath>
<clipPath id="clip-13"><path d="M -275.9 -223.68 L 340.63 -168.43 L 305.64 222.01 L -310.89 166.75 L -275.9 -223.68 M -275.9 -223.68"/></clipPath>
<clipPath id="clip-14"><path d="M -328.75 -157.37 L 288.78 -200.01 L 315.78 191.06 L -301.75 233.7 L -328.75 -157.37 M -328.75 -157.37"/></clipPath>
<clipPath id="clip-15"><path d="M -326.84 -157.3 L 290.69 -199.94 L 317.69 191.12 L -299.84 233.77 L -326.84 -157.3 M -326.84 -157.3"/></clipPath>
<clipPath id="clip-16"><path d="M -324.91 -157.23 L 292.62 -199.88 L 319.63 191.19 L -297.9 233.83 L -324.91 -157.23 M -324.91 -157.23"/></clipPath>
<clipPath id="clip-17"><path d="M -322.94 -157.17 L 294.59 -199.81 L 321.59 191.26 L -295.94 233.9 L -322.94 -157.17 M -322.94 -157.17"/></clipPath>
<clipPath id="clip-18"><path d="M -320.95 -157.1 L 296.58 -199.74 L 323.59 191.33 L -293.94 233.97 L -320.95 -157.1 M -320.95 -157.1"/></clipPath>
<clipPath id="clip-19"><path d="M -318.92 -157.03 L 298.61 -199.67 L 325.61 191.4 L -291.92 234.04 L -318.92 -157.03 M -318.92 -157.03"/></clipPath>
<clipPath id="clip-20"><path d="M -316.87 -156.96 L 300.66 -199.6 L 327.67 191.47 L -289.86 234.11 L -316.87 -156.96 M -316.87 -156.96"/></clipPath>
<clipPath id="clip-21"><path d="M 441.77 -574.58 L 484.41 42.95 L 93.34 69.95 L 50.7 -547.58 L 441.77 -574.58 M 441.77 -574.58"/></clipPath>
<clipPath id="clip-22"><path d="M -33.91 -575.32 L 367.6 -104.21 L 69.25 150.06 L -332.26 -321.06 L -33.91 -575.32 M -33.91 -575.32"/></clipPath>
<clipPath id="clip-23"><path d="M -48.57 -568.56 L 352.94 -97.44 L 54.6 156.83 L -346.92 -314.29 L -48.57 -568.56 M -48.57 -568.56"/></clipPath>
<clipPath id="clip-24"><path d="M -62.51 -562.12 L 339 -91 L 40.65 163.27 L -360.86 -307.85 L -62.51 -562.12 M -62.51 -562.12"/></clipPath>
<clipPath id="clip-25"><path d="M -75.79 -555.99 L 325.72 -84.87 L 27.37 169.4 L -374.14 -301.72 L -75.79 -555.99 M -75.79 -555.99"/></clipPath>
<clipPath id="clip-26"><path d="M 353 362 L 353 388 L 615 388 L 615 362 M 353 362"/></clipPath>
<clipPath id="clip-27"><path d="M -12 -13 L -12 13 L 250 13 L 250 -13 M -12 -13"/></clipPath>
<clipPath id="clip-28"><path d="M -72 -13 L -72 13 L 190 13 L 190 -13 M -72 -13"/></clipPath>
<clipPath id="clip-29"><path d="M -137 -13 L -137 13 L 125 13 L 125 -13 M -137 -13"/></clipPath>
<clipPath id="clip-30"><path d="M -214 -13 L -214 13 L 48 13 L 48 -13 M -214 -13"/></clipPath>
</defs>
<rect x="0" y="0" width="619" height="392" style="fill: rgba(255,255,255,1);fill-opacity: 1.0" transform="matrix(1,0,0,1,0,0)" clip-path="url(#clip-0)"/><g style="fill: rgba(184,184,184,0.498039);fill-opacity: 1.0; stroke: none" transform="matrix(1,0,0,1,309.5,196)" clip-path="url(#clip-1)"><path d="M -207.38 141.35 L -222.74 65.14 L 174.52 33.67 L 233.02 101.88 M -207.38 141.35"/></g><g style="fill: rgba(128,128,192,0.25098);fill-opacity: 1.0; stroke: none" transform="matrix(1,0,0,1,309.5,196)" clip-path="url(#clip-1)"><path d="M 37.49 119.4 L -2.48 47.69 L 29.71 45.14 L 73.13 116.21 M 37.49 119.4"/></g><line x1="37.49" y1="119.4" x2="-2.48" y2="47.69" style="stroke-width: 0.0;stroke: rgba(64,64,64,1);stroke-opacity: 1.0;" transform="matrix(1,0,0,1,309.5,196)" clip-path="url(#clip-1)"/><line x1="73.13" y1="116.21" x2="29.71" y2="45.14" style="stroke-width: 0.0;stroke: rgba(64,64,64,1);stroke-opacity: 1.0;" transform="matrix(1,0,0,1,309.5,196)" clip-path="url(#clip-1)"/><g style="fill: rgba(128,128,192,0.25098);fill-opacity: 1.0; stroke: none" transform="matrix(1,0,0,1,309.5,196)" clip-path="url(#clip-1)"><path d="M -211.95 118.66 L 215.68 81.66 L 202.23 65.98 L -215.49 101.13 M -211.95 118.66"/></g><line x1="-211.95" y1="118.66" x2="215.68" y2="81.66" style="stroke-width: 0.0;stroke: rgba(64,64,64,1);stroke-opacity: 1.0;" transform="matrix(1,0,0,1,309.5,196)" clip-path="url(#clip-1)"/><line x1="-215.49" y1="101.13" x2="202.23" y2="65.98" style="stroke-width: 0.0;stroke: rgba(64,64,64,1);stroke-opacity: 1.0;" transform="matrix(1,0,0,1,309.5,196)" clip-path="url(#clip-1)"/><g style="fill: rgba(241,241,241,0.498039);fill-opacity: 1.0; stroke: none" transform="matrix(1,0,0,1,309.5,196)" clip-path="url(#clip-1)"><path d="M -222.74 65.14 L -231.2 -101.08 L 182.85 -124.63 L 174.52 33.67 M -222.74 65.14"/></g><line x1="174.52" y1="33.67" x2="-222.74" y2="65.14" style="stroke-width: 0.0;stroke: rgba(0,0,0,1);stroke-opacity: 1.0;" transform="matrix(1,0,0,1,309.5,196)" clip-path="url(#clip-1)"/><line x1="175.85" y1="8.36" x2="-224.09" y2="38.62" style="stroke-width: 0.0;stroke: rgba(0,0,0,1);stroke-opacity: 1.0;" transform="matrix(1,0,0,1,309.5,196)" clip-path="url(#clip-1)"/><line x1="177.2" y1="-17.28" x2="-225.46" y2="11.73" style="stroke-width: 0.0;stroke: rgba(0,0,0,1);stroke-opacity: 1.0;" transform="matrix(1,0,0,1,309.5,196)" clip-path="url(#clip-1)"/><line x1="178.57" y1="-43.27" x2="-226.85" y2="-15.55" style="stroke-width: 0.0;stroke: rgba(0,0,0,1);stroke-opacity: 1.0;" transform="matrix(1,0,0,1,309.5,196)" clip-path="url(#clip-1)"/><line x1="179.95" y1="-69.6" x2="-228.25" y2="-43.21" style="stroke-width: 0.0;stroke: rgba(0,0,0,1);stroke-opacity: 1.0;" transform="matrix(1,0,0,1,309.5,196)" clip-path="url(#clip-1)"/><line x1="181.36" y1="-96.29" x2="-229.68" y2="-71.26" style="stroke-width: 0.0;stroke: rgba(0,0,0,1);stroke-opacity: 1.0;" transform="matrix(1,0,0,1,309.5,196)" clip-path="url(#clip-1)"/><line x1="182.78" y1="-123.34" x2="-231.13" y2="-99.72" style="stroke-width: 0.0;stroke: rgba(0,0,0,1);stroke-opacity: 1.0;" transform="matrix(1,0,0,1,309.5,196)" clip-path="url(#clip-1)"/><g style="fill: rgba(128,128,192,0.25098);fill-opacity: 1.0; stroke: none" transform="matrix(1,0,0,1,309.5,196)" clip-path="url(#clip-1)"><path d="M -2.48 47.69 L -1.39 -114.15 L 32.15 -116.06 L 29.71 45.14 M -2.48 47.69"/></g><line x1="-2.48" y1="47.69" x2="-1.39" y2="-114.15" style="stroke-width: 0.0;stroke: rgba(64,64,64,1);stroke-opacity: 1.0;" transform="matrix(1,0,0,1,309.5,196)" clip-path="url(#clip-1)"/><line x1="29.71" y1="45.14" x2="32.15" y2="-116.06" style="stroke-width: 0.0;stroke: rgba(64,64,64,1);stroke-opacity: 1.0;" transform="matrix(1,0,0,1,309.5,196)" clip-path="url(#clip-1)"/><g style="fill: rgba(127,127,127,0.498039);fill-opacity: 1.0; stroke: none" transform="matrix(1,0,0,1,309.5,196)" clip-path="url(#clip-1)"><path d="M 174.52 33.67 L 182.85 -124.63 L 245.01 -71.66 L 233.02 101.88 M 174.52 33.67"/></g><line x1="233.02" y1="101.88" x2="174.52" y2="33.67" style="stroke-width: 0.0;stroke: rgba(0,0,0,1);stroke-opacity: 1.0;" transform="matrix(1,0,0,1,309.5,196)" clip-path="url(#clip-1)"/><line x1="234.93" y1="74.24" x2="175.85" y2="8.36" style="stroke-width: 0.0;stroke: rgba(0,0,0,1);stroke-opacity: 1.0;" transform="matrix(1,0,0,1,309.5,196)" clip-path="url(#clip-1)"/><line x1="236.87" y1="46.19" x2="177.2" y2="-17.28" style="stroke-width: 0.0;stroke: rgba(0,0,0,1);stroke-opacity: 1.0;" transform="matrix(1,0,0,1,309.5,196)" clip-path="url(#clip-1)"/><line x1="238.83" y1="17.73" x2="178.57" y2="-43.27" style="stroke-width: 0.0;stroke: rgba(0,0,0,1);stroke-opacity: 1.0;" transform="matrix(1,0,0,1,309.5,196)" clip-path="url(#clip-1)"/><line x1="240.83" y1="-11.15" x2="179.95" y2="-69.6" style="stroke-width: 0.0;stroke: rgba(0,0,0,1);stroke-opacity: 1.0;" transform="matrix(1,0,0,1,309.5,196)" clip-path="url(#clip-1)"/><line x1="242.85" y1="-40.47" x2="181.36" y2="-96.29" style="stroke-width: 0.0;stroke: rgba(0,0,0,1);stroke-opacity: 1.0;" transform="matrix(1,0,0,1,309.5,196)" clip-path="url(#clip-1)"/><line x1="244.91" y1="-70.24" x2="182.78" y2="-123.34" style="stroke-width: 0.0;stroke: rgba(0,0,0,1);stroke-opacity: 1.0;" transform="matrix(1,0,0,1,309.5,196)" clip-path="url(#clip-1)"/><g style="fill: rgba(128,128,192,0.25098);fill-opacity: 1.0; stroke: none" transform="matrix(1,0,0,1,309.5,196)" clip-path="url(#clip-1)"><path d="M 215.68 81.66 L 226.52 -87.41 L 212.23 -99.59 L 202.23 65.98 M 215.68 81.66"/></g><line x1="215.68" y1="81.66" x2="226.52" y2="-87.41" style="stroke-width: 0.0;stroke: rgba(64,64,64,1);stroke-opacity: 1.0;" transform="matrix(1,0,0,1,309.5,196)" clip-path="url(#clip-1)"/><line x1="202.23" y1="65.98" x2="212.23" y2="-99.59" style="stroke-width: 0.0;stroke: rgba(64,64,64,1);stroke-opacity: 1.0;" transform="matrix(1,0,0,1,309.5,196)" clip-path="url(#clip-1)"/><g style="fill: rgba(173,162,124,1);fill-opacity: 1.0; stroke: none" transform="matrix(1,0,0,1,309.5,196)" clip-path="url(#clip-1)"><path d="M 132.9 44.06 L 158 42.04 L 163.89 49.22 L 138.51 51.29 M 132.9 44.06"/></g><g style="fill: rgba(173,162,124,1);fill-opacity: 1.0; stroke: none" transform="matrix(1,0,0,1,309.5,196)" clip-path="url(#clip-1)"><path d="M 101.26 46.59 L 126.59 44.56 L 132.14 51.8 L 106.54 53.89 M 101.26 46.59"/></g><g style="fill: rgba(173,162,124,1);fill-opacity: 1.0; stroke: none" transform="matrix(1,0,0,1,309.5,196)" clip-path="url(#clip-1)"><path d="M 69.34 49.16 L 94.9 47.11 L 100.11 54.41 L 74.27 56.51 M 69.34 49.16"/></g><g style="fill: rgba(227,213,163,1);fill-opacity: 1.0; stroke: none" transform="matrix(1,0,0,1,309.5,196)" clip-path="url(#clip-1)"><path d="M 126.59 44.56 L 101.26 46.59 L 104.59 -51.91 L 130.55 -53.64 M 126.59 44.56"/></g><g style="fill: rgba(173,162,124,1);fill-opacity: 1.0; stroke: none" transform="matrix(1,0,0,1,309.5,196)" clip-path="url(#clip-1)"><path d="M 37.14 51.74 L 62.93 49.67 L 67.78 57.04 L 41.71 59.16 M 37.14 51.74"/></g><g style="fill: rgba(227,213,163,1);fill-opacity: 1.0; stroke: none" transform="matrix(1,0,0,1,309.5,196)" clip-path="url(#clip-1)"><path d="M 158 42.04 L 132.9 44.06 L 139.31 -108.73 L 165.39 -110.27 M 158 42.04"/></g><g style="fill: rgba(227,213,163,1);fill-opacity: 1.0; stroke: none" transform="matrix(1,0,0,1,309.5,196)" clip-path="url(#clip-1)"><path d="M 94.9 47.11 L 69.34 49.16 L 71.71 -43.86 L 97.88 -45.62 M 94.9 47.11"/></g><g style="fill: rgba(119,112,85,1);fill-opacity: 1.0; stroke: none" transform="matrix(1,0,0,1,309.5,196)" clip-path="url(#clip-1)"><path d="M 132.14 51.8 L 126.59 44.56 L 130.55 -53.64 L 136.29 -47.37 M 132.14 51.8"/></g><g style="fill: rgba(119,112,85,1);fill-opacity: 1.0; stroke: none" transform="matrix(1,0,0,1,309.5,196)" clip-path="url(#clip-1)"><path d="M 163.89 49.22 L 158 42.04 L 165.39 -110.27 L 171.6 -104.62 M 163.89 49.22"/></g><g style="fill: rgba(173,162,124,1);fill-opacity: 1.0; stroke: none" transform="matrix(1,0,0,1,309.5,196)" clip-path="url(#clip-1)"><path d="M 4.64 54.35 L 30.66 52.26 L 35.16 59.69 L 8.85 61.83 M 4.64 54.35"/></g><g style="fill: rgba(119,112,85,1);fill-opacity: 1.0; stroke: none" transform="matrix(1,0,0,1,309.5,196)" clip-path="url(#clip-1)"><path d="M 101.26 46.59 L 104.59 -51.91 L 110.04 -45.6 L 106.54 53.89 M 101.26 46.59"/></g><g style="fill: rgba(119,112,85,1);fill-opacity: 1.0; stroke: none" transform="matrix(1,0,0,1,309.5,196)" clip-path="url(#clip-1)"><path d="M 100.11 54.41 L 94.9 47.11 L 97.88 -45.62 L 103.25 -39.24 M 100.11 54.41"/></g><g style="fill: rgba(119,112,85,1);fill-opacity: 1.0; stroke: none" transform="matrix(1,0,0,1,309.5,196)" clip-path="url(#clip-1)"><path d="M 132.9 44.06 L 139.31 -108.73 L 145.23 -103.05 L 138.51 51.29 M 132.9 44.06"/></g><g style="fill: rgba(227,213,163,1);fill-opacity: 1.0; stroke: none" transform="matrix(1,0,0,1,309.5,196)" clip-path="url(#clip-1)"><path d="M 62.93 49.67 L 37.14 51.74 L 39.12 -64.18 L 65.67 -65.88 M 62.93 49.67"/></g><g style="fill: rgba(173,162,124,1);fill-opacity: 1.0; stroke: none" transform="matrix(1,0,0,1,309.5,196)" clip-path="url(#clip-1)"><path d="M -28.15 56.98 L -1.89 54.87 L 2.25 62.37 L -24.31 64.52 M -28.15 56.98"/></g><g style="fill: rgba(119,112,85,1);fill-opacity: 1.0; stroke: none" transform="matrix(1,0,0,1,309.5,196)" clip-path="url(#clip-1)"><path d="M 69.34 49.16 L 71.71 -43.86 L 76.79 -37.43 L 74.27 56.51 M 69.34 49.16"/></g><g style="fill: rgba(227,213,163,1);fill-opacity: 1.0; stroke: none" transform="matrix(1,0,0,1,309.5,196)" clip-path="url(#clip-1)"><path d="M 110.04 -45.6 L 136.29 -47.37 L 132.14 51.8 L 106.54 53.89 M 110.04 -45.6"/></g><g style="fill: rgba(38,34,28,1);fill-opacity: 1.0; stroke: none" transform="matrix(1,0,0,1,309.5,196)" clip-path="url(#clip-1)"><path d="M 144.26 58.68 L 169.91 56.57 L 176.08 64.09 L 150.15 66.26 M 144.26 58.68"/></g><g style="fill: rgba(227,213,163,1);fill-opacity: 1.0; stroke: none" transform="matrix(1,0,0,1,309.5,196)" clip-path="url(#clip-1)"><path d="M 145.23 -103.05 L 171.6 -104.62 L 163.89 49.22 L 138.51 51.29 M 145.23 -103.05"/></g><g style="fill: rgba(50,45,37,1);fill-opacity: 1.0; stroke: none" transform="matrix(1,0,0,1,309.5,196)" clip-path="url(#clip-1)"><path d="M 169.91 56.57 L 144.26 58.68 L 147.19 -6.17 L 173.26 -8.09 M 169.91 56.57"/></g><g style="fill: rgba(119,112,85,1);fill-opacity: 1.0; stroke: none" transform="matrix(1,0,0,1,309.5,196)" clip-path="url(#clip-1)"><path d="M 67.78 57.04 L 62.93 49.67 L 65.67 -65.88 L 70.71 -59.68 M 67.78 57.04"/></g><g style="fill: rgba(227,213,163,1);fill-opacity: 1.0; stroke: none" transform="matrix(1,0,0,1,309.5,196)" clip-path="url(#clip-1)"><path d="M 76.79 -37.43 L 103.25 -39.24 L 100.11 54.41 L 74.27 56.51 M 76.79 -37.43"/></g><g style="fill: rgba(173,162,124,1);fill-opacity: 1.0; stroke: none" transform="matrix(1,0,0,1,309.5,196)" clip-path="url(#clip-1)"><path d="M -61.24 59.63 L -34.74 57.51 L -30.97 65.07 L -57.77 67.25 M -61.24 59.63"/></g><g style="fill: rgba(38,34,28,1);fill-opacity: 1.0; stroke: none" transform="matrix(1,0,0,1,309.5,196)" clip-path="url(#clip-1)"><path d="M 111.94 61.35 L 137.82 59.22 L 143.63 66.8 L 117.46 68.99 M 111.94 61.35"/></g><g style="fill: rgba(50,45,37,1);fill-opacity: 1.0; stroke: none" transform="matrix(1,0,0,1,309.5,196)" clip-path="url(#clip-1)"><path d="M 137.82 59.22 L 111.94 61.35 L 113.73 12.35 L 139.94 10.36 M 137.82 59.22"/></g><g style="fill: rgba(227,213,163,1);fill-opacity: 1.0; stroke: none" transform="matrix(1,0,0,1,309.5,196)" clip-path="url(#clip-1)"><path d="M -1.89 54.87 L -28.15 56.98 L -28.14 -38.99 L -1.23 -40.79 M -1.89 54.87"/></g><g style="fill: rgba(26,23,19,1);fill-opacity: 1.0; stroke: none" transform="matrix(1,0,0,1,309.5,196)" clip-path="url(#clip-1)"><path d="M 176.08 64.09 L 169.91 56.57 L 173.26 -8.09 L 179.57 -1.21 M 176.08 64.09"/></g><g style="fill: rgba(173,162,124,1);fill-opacity: 1.0; stroke: none" transform="matrix(1,0,0,1,309.5,196)" clip-path="url(#clip-1)"><path d="M 104.59 -51.91 L 130.55 -53.64 L 136.29 -47.37 L 110.04 -45.6 M 104.59 -51.91"/></g><g style="fill: rgba(119,112,85,1);fill-opacity: 1.0; stroke: none" transform="matrix(1,0,0,1,309.5,196)" clip-path="url(#clip-1)"><path d="M 37.14 51.74 L 39.12 -64.18 L 43.85 -57.93 L 41.71 59.16 M 37.14 51.74"/></g><g style="fill: rgba(227,213,163,1);fill-opacity: 1.0; stroke: none" transform="matrix(1,0,0,1,309.5,196)" clip-path="url(#clip-1)"><path d="M 30.66 52.26 L 4.64 54.35 L 5.9 -92.24 L 32.91 -93.86 M 30.66 52.26"/></g><g style="fill: rgba(173,162,124,1);fill-opacity: 1.0; stroke: none" transform="matrix(1,0,0,1,309.5,196)" clip-path="url(#clip-1)"><path d="M -94.63 62.31 L -67.89 60.17 L -64.5 67.79 L -91.54 69.99 M -94.63 62.31"/></g><g style="fill: rgba(26,23,19,1);fill-opacity: 1.0; stroke: none" transform="matrix(1,0,0,1,309.5,196)" clip-path="url(#clip-1)"><path d="M 143.63 66.8 L 137.82 59.22 L 139.94 10.36 L 145.86 17.46 M 143.63 66.8"/></g><g style="fill: rgba(38,34,28,1);fill-opacity: 1.0; stroke: none" transform="matrix(1,0,0,1,309.5,196)" clip-path="url(#clip-1)"><path d="M 79.31 64.04 L 105.44 61.88 L 110.89 69.54 L 84.48 71.74 M 79.31 64.04"/></g><g style="fill: rgba(173,162,124,1);fill-opacity: 1.0; stroke: none" transform="matrix(1,0,0,1,309.5,196)" clip-path="url(#clip-1)"><path d="M 71.71 -43.86 L 97.88 -45.62 L 103.25 -39.24 L 76.79 -37.43 M 71.71 -43.86"/></g><g style="fill: rgba(119,112,85,1);fill-opacity: 1.0; stroke: none" transform="matrix(1,0,0,1,309.5,196)" clip-path="url(#clip-1)"><path d="M 2.25 62.37 L -1.89 54.87 L -1.23 -40.79 L 3.02 -34.26 M 2.25 62.37"/></g><g style="fill: rgba(227,213,163,1);fill-opacity: 1.0; stroke: none" transform="matrix(1,0,0,1,309.5,196)" clip-path="url(#clip-1)"><path d="M -34.74 57.51 L -61.24 59.63 L -62.04 -33.97 L -34.9 -35.8 M -34.74 57.51"/></g><g style="fill: rgba(50,45,37,1);fill-opacity: 1.0; stroke: none" transform="matrix(1,0,0,1,309.5,196)" clip-path="url(#clip-1)"><path d="M 105.44 61.88 L 79.31 64.04 L 80.8 11.16 L 107.28 9.17 M 105.44 61.88"/></g><g style="fill: rgba(26,23,19,1);fill-opacity: 1.0; stroke: none" transform="matrix(1,0,0,1,309.5,196)" clip-path="url(#clip-1)"><path d="M 144.26 58.68 L 147.19 -6.17 L 153.21 0.75 L 150.15 66.26 M 144.26 58.68"/></g><g style="fill: rgba(227,213,163,1);fill-opacity: 1.0; stroke: none" transform="matrix(1,0,0,1,309.5,196)" clip-path="url(#clip-1)"><path d="M 43.85 -57.93 L 70.71 -59.68 L 67.78 57.04 L 41.71 59.16 M 43.85 -57.93"/></g><g style="fill: rgba(119,112,85,1);fill-opacity: 1.0; stroke: none" transform="matrix(1,0,0,1,309.5,196)" clip-path="url(#clip-1)"><path d="M 35.16 59.69 L 30.66 52.26 L 32.91 -93.86 L 37.61 -87.92 M 35.16 59.69"/></g><g style="fill: rgba(26,23,19,1);fill-opacity: 1.0; stroke: none" transform="matrix(1,0,0,1,309.5,196)" clip-path="url(#clip-1)"><path d="M 111.94 61.35 L 113.73 12.35 L 119.35 19.49 L 117.46 68.99 M 111.94 61.35"/></g><g style="fill: rgba(173,162,124,1);fill-opacity: 1.0; stroke: none" transform="matrix(1,0,0,1,309.5,196)" clip-path="url(#clip-1)"><path d="M -128.33 65.01 L -101.34 62.85 L -98.34 70.54 L -125.63 72.76 M -128.33 65.01"/></g><g style="fill: rgba(119,112,85,1);fill-opacity: 1.0; stroke: none" transform="matrix(1,0,0,1,309.5,196)" clip-path="url(#clip-1)"><path d="M -28.15 56.98 L -28.14 -38.99 L -24.2 -32.41 L -24.31 64.52 M -28.15 56.98"/></g><g style="fill: rgba(38,34,28,1);fill-opacity: 1.0; stroke: none" transform="matrix(1,0,0,1,309.5,196)" clip-path="url(#clip-1)"><path d="M 46.39 66.75 L 72.75 64.58 L 77.84 72.3 L 51.18 74.53 M 46.39 66.75"/></g><g style="fill: rgba(119,112,85,1);fill-opacity: 1.0; stroke: none" transform="matrix(1,0,0,1,309.5,196)" clip-path="url(#clip-1)"><path d="M -30.97 65.07 L -34.74 57.51 L -34.9 -35.8 L -31.04 -29.19 M -30.97 65.07"/></g><g style="fill: rgba(26,23,19,1);fill-opacity: 1.0; stroke: none" transform="matrix(1,0,0,1,309.5,196)" clip-path="url(#clip-1)"><path d="M 110.89 69.54 L 105.44 61.88 L 107.28 9.17 L 112.83 16.3 M 110.89 69.54"/></g><g style="fill: rgba(50,45,37,1);fill-opacity: 1.0; stroke: none" transform="matrix(1,0,0,1,309.5,196)" clip-path="url(#clip-1)"><path d="M 153.21 0.75 L 179.57 -1.21 L 176.08 64.09 L 150.15 66.26 M 153.21 0.75"/></g><g style="fill: rgba(50,45,37,1);fill-opacity: 1.0; stroke: none" transform="matrix(1,0,0,1,309.5,196)" clip-path="url(#clip-1)"><path d="M 72.75 64.58 L 46.39 66.75 L 47.46 12.06 L 74.19 10.06 M 72.75 64.58"/></g><g style="fill: rgba(119,112,85,1);fill-opacity: 1.0; stroke: none" transform="matrix(1,0,0,1,309.5,196)" clip-path="url(#clip-1)"><path d="M 4.64 54.35 L 5.9 -92.24 L 10.29 -86.26 L 8.85 61.83 M 4.64 54.35"/></g><g style="fill: rgba(173,162,124,1);fill-opacity: 1.0; stroke: none" transform="matrix(1,0,0,1,309.5,196)" clip-path="url(#clip-1)"><path d="M 139.31 -108.73 L 165.39 -110.27 L 171.6 -104.62 L 145.23 -103.05 M 139.31 -108.73"/></g><g style="fill: rgba(227,213,163,1);fill-opacity: 1.0; stroke: none" transform="matrix(1,0,0,1,309.5,196)" clip-path="url(#clip-1)"><path d="M -67.89 60.17 L -94.63 62.31 L -96.46 -43.25 L -68.98 -45.06 M -67.89 60.17"/></g><g style="fill: rgba(38,34,28,1);fill-opacity: 1.0; stroke: none" transform="matrix(1,0,0,1,309.5,196)" clip-path="url(#clip-1)"><path d="M 147.19 -6.17 L 173.26 -8.09 L 179.57 -1.21 L 153.21 0.75 M 147.19 -6.17"/></g><g style="fill: rgba(50,45,37,1);fill-opacity: 1.0; stroke: none" transform="matrix(1,0,0,1,309.5,196)" clip-path="url(#clip-1)"><path d="M 119.35 19.49 L 145.86 17.46 L 143.63 66.8 L 117.46 68.99 M 119.35 19.49"/></g><g style="fill: rgba(38,34,28,1);fill-opacity: 1.0; stroke: none" transform="matrix(1,0,0,1,309.5,196)" clip-path="url(#clip-1)"><path d="M 113.73 12.35 L 139.94 10.36 L 145.86 17.46 L 119.35 19.49 M 113.73 12.35"/></g><g style="fill: rgba(227,213,163,1);fill-opacity: 1.0; stroke: none" transform="matrix(1,0,0,1,309.5,196)" clip-path="url(#clip-1)"><path d="M -24.2 -32.41 L 3.02 -34.26 L 2.25 62.37 L -24.31 64.52 M -24.2 -32.41"/></g><g style="fill: rgba(173,162,124,1);fill-opacity: 1.0; stroke: none" transform="matrix(1,0,0,1,309.5,196)" clip-path="url(#clip-1)"><path d="M -162.34 67.74 L -135.1 65.56 L -132.49 73.32 L -160.04 75.56 M -162.34 67.74"/></g><g style="fill: rgba(119,112,85,1);fill-opacity: 1.0; stroke: none" transform="matrix(1,0,0,1,309.5,196)" clip-path="url(#clip-1)"><path d="M -61.24 59.63 L -62.04 -33.97 L -58.5 -27.31 L -57.77 67.25 M -61.24 59.63"/></g><g style="fill: rgba(26,23,19,1);fill-opacity: 1.0; stroke: none" transform="matrix(1,0,0,1,309.5,196)" clip-path="url(#clip-1)"><path d="M 79.31 64.04 L 80.8 11.16 L 86.06 18.34 L 84.48 71.74 M 79.31 64.04"/></g><g style="fill: rgba(38,34,28,1);fill-opacity: 1.0; stroke: none" transform="matrix(1,0,0,1,309.5,196)" clip-path="url(#clip-1)"><path d="M 13.16 69.49 L 39.77 67.3 L 44.49 75.09 L 17.58 77.33 M 13.16 69.49"/></g><g style="fill: rgba(26,23,19,1);fill-opacity: 1.0; stroke: none" transform="matrix(1,0,0,1,309.5,196)" clip-path="url(#clip-1)"><path d="M 77.84 72.3 L 72.75 64.58 L 74.19 10.06 L 79.38 17.23 M 77.84 72.3"/></g><g style="fill: rgba(227,213,163,1);fill-opacity: 1.0; stroke: none" transform="matrix(1,0,0,1,309.5,196)" clip-path="url(#clip-1)"><path d="M 10.29 -86.26 L 37.61 -87.92 L 35.16 59.69 L 8.85 61.83 M 10.29 -86.26"/></g><g style="fill: rgba(50,45,37,1);fill-opacity: 1.0; stroke: none" transform="matrix(1,0,0,1,309.5,196)" clip-path="url(#clip-1)"><path d="M 39.77 67.3 L 13.16 69.49 L 13.79 11.95 L 40.79 9.94 M 39.77 67.3"/></g><g style="fill: rgba(173,162,124,1);fill-opacity: 1.0; stroke: none" transform="matrix(1,0,0,1,309.5,196)" clip-path="url(#clip-1)"><path d="M 39.12 -64.18 L 65.67 -65.88 L 70.71 -59.68 L 43.85 -57.93 M 39.12 -64.18"/></g><g style="fill: rgba(119,112,85,1);fill-opacity: 1.0; stroke: none" transform="matrix(1,0,0,1,309.5,196)" clip-path="url(#clip-1)"><path d="M -64.5 67.79 L -67.89 60.17 L -68.98 -45.06 L -65.51 -38.51 M -64.5 67.79"/></g><g style="fill: rgba(227,213,163,1);fill-opacity: 1.0; stroke: none" transform="matrix(1,0,0,1,309.5,196)" clip-path="url(#clip-1)"><path d="M -135.1 65.56 L -162.34 67.74 L -165.01 -8.41 L -137.22 -10.35 M -135.1 65.56"/></g><g style="fill: rgba(227,213,163,1);fill-opacity: 1.0; stroke: none" transform="matrix(1,0,0,1,309.5,196)" clip-path="url(#clip-1)"><path d="M -58.5 -27.31 L -31.04 -29.19 L -30.97 65.07 L -57.77 67.25 M -58.5 -27.31"/></g><g style="fill: rgba(50,45,37,1);fill-opacity: 1.0; stroke: none" transform="matrix(1,0,0,1,309.5,196)" clip-path="url(#clip-1)"><path d="M 86.06 18.34 L 112.83 16.3 L 110.89 69.54 L 84.48 71.74 M 86.06 18.34"/></g><g style="fill: rgba(173,162,124,1);fill-opacity: 1.0; stroke: none" transform="matrix(1,0,0,1,309.5,196)" clip-path="url(#clip-1)"><path d="M -196.66 70.5 L -169.18 68.29 L -166.96 76.12 L -194.77 78.38 M -196.66 70.5"/></g><g style="fill: rgba(50,45,37,1);fill-opacity: 1.0; stroke: none" transform="matrix(1,0,0,1,309.5,196)" clip-path="url(#clip-1)"><path d="M 6.48 70.04 L -20.37 72.25 L -20.28 29.32 L 6.87 27.24 M 6.48 70.04"/></g><g style="fill: rgba(26,23,19,1);fill-opacity: 1.0; stroke: none" transform="matrix(1,0,0,1,309.5,196)" clip-path="url(#clip-1)"><path d="M 46.39 66.75 L 47.46 12.06 L 52.34 19.28 L 51.18 74.53 M 46.39 66.75"/></g><g style="fill: rgba(38,34,28,1);fill-opacity: 1.0; stroke: none" transform="matrix(1,0,0,1,309.5,196)" clip-path="url(#clip-1)"><path d="M 80.8 11.16 L 107.28 9.17 L 112.83 16.3 L 86.06 18.34 M 80.8 11.16"/></g><g style="fill: rgba(38,34,28,1);fill-opacity: 1.0; stroke: none" transform="matrix(1,0,0,1,309.5,196)" clip-path="url(#clip-1)"><path d="M -20.37 72.25 L 6.48 70.04 L 10.82 77.9 L -16.34 80.17 M -20.37 72.25"/></g><g style="fill: rgba(227,213,163,1);fill-opacity: 1.0; stroke: none" transform="matrix(1,0,0,1,309.5,196)" clip-path="url(#clip-1)"><path d="M -101.34 62.85 L -128.33 65.01 L -131.62 -60.89 L -103.74 -62.65 M -101.34 62.85"/></g><g style="fill: rgba(205,219,197,1);fill-opacity: 1.0; stroke: none" transform="matrix(1,0,0,1,309.5,196)" clip-path="url(#clip-1)"><path d="M 182.39 71.79 L 156.17 74.01 L 158.36 28.76 L 184.88 26.68 M 182.39 71.79"/></g><g style="fill: rgba(156,167,150,1);fill-opacity: 1.0; stroke: none" transform="matrix(1,0,0,1,309.5,196)" clip-path="url(#clip-1)"><path d="M 156.17 74.01 L 182.39 71.79 L 188.86 79.68 L 162.34 81.96 M 156.17 74.01"/></g><g style="fill: rgba(119,112,85,1);fill-opacity: 1.0; stroke: none" transform="matrix(1,0,0,1,309.5,196)" clip-path="url(#clip-1)"><path d="M -94.63 62.31 L -96.46 -43.25 L -93.31 -36.65 L -91.54 69.99 M -94.63 62.31"/></g><g style="fill: rgba(26,23,19,1);fill-opacity: 1.0; stroke: none" transform="matrix(1,0,0,1,309.5,196)" clip-path="url(#clip-1)"><path d="M 44.49 75.09 L 39.77 67.3 L 40.79 9.94 L 45.59 17.15 M 44.49 75.09"/></g><g style="fill: rgba(173,162,124,1);fill-opacity: 1.0; stroke: none" transform="matrix(1,0,0,1,309.5,196)" clip-path="url(#clip-1)"><path d="M -28.14 -38.99 L -1.23 -40.79 L 3.02 -34.26 L -24.2 -32.41 M -28.14 -38.99"/></g><g style="fill: rgba(119,112,85,1);fill-opacity: 1.0; stroke: none" transform="matrix(1,0,0,1,309.5,196)" clip-path="url(#clip-1)"><path d="M -132.49 73.32 L -135.1 65.56 L -137.22 -10.35 L -134.58 -3.36 M -132.49 73.32"/></g><g style="fill: rgba(227,213,163,1);fill-opacity: 1.0; stroke: none" transform="matrix(1,0,0,1,309.5,196)" clip-path="url(#clip-1)"><path d="M -169.18 68.29 L -196.66 70.5 L -200.07 -6.79 L -172.02 -8.75 M -169.18 68.29"/></g><g style="fill: rgba(26,23,19,1);fill-opacity: 1.0; stroke: none" transform="matrix(1,0,0,1,309.5,196)" clip-path="url(#clip-1)"><path d="M 10.82 77.9 L 6.48 70.04 L 6.87 27.24 L 11.26 34.67 M 10.82 77.9"/></g><g style="fill: rgba(50,45,37,1);fill-opacity: 1.0; stroke: none" transform="matrix(1,0,0,1,309.5,196)" clip-path="url(#clip-1)"><path d="M 52.34 19.28 L 79.38 17.23 L 77.84 72.3 L 51.18 74.53 M 52.34 19.28"/></g><g style="fill: rgba(119,112,85,1);fill-opacity: 1.0; stroke: none" transform="matrix(1,0,0,1,309.5,196)" clip-path="url(#clip-1)"><path d="M -98.34 70.54 L -101.34 62.85 L -103.74 -62.65 L -100.66 -56.25 M -98.34 70.54"/></g><g style="fill: rgba(205,219,197,1);fill-opacity: 1.0; stroke: none" transform="matrix(1,0,0,1,309.5,196)" clip-path="url(#clip-1)"><path d="M 149.59 74.57 L 123.12 76.81 L 124.72 36.73 L 151.45 34.62 M 149.59 74.57"/></g><g style="fill: rgba(38,34,28,1);fill-opacity: 1.0; stroke: none" transform="matrix(1,0,0,1,309.5,196)" clip-path="url(#clip-1)"><path d="M -54.22 75.04 L -27.12 72.81 L -23.17 80.74 L -50.58 83.03 M -54.22 75.04"/></g><g style="fill: rgba(26,23,19,1);fill-opacity: 1.0; stroke: none" transform="matrix(1,0,0,1,309.5,196)" clip-path="url(#clip-1)"><path d="M 13.16 69.49 L 13.79 11.95 L 18.28 19.21 L 17.58 77.33 M 13.16 69.49"/></g><g style="fill: rgba(108,115,103,1);fill-opacity: 1.0; stroke: none" transform="matrix(1,0,0,1,309.5,196)" clip-path="url(#clip-1)"><path d="M 188.86 79.68 L 182.39 71.79 L 184.88 26.68 L 191.46 34.11 M 188.86 79.68"/></g><g style="fill: rgba(50,45,37,1);fill-opacity: 1.0; stroke: none" transform="matrix(1,0,0,1,309.5,196)" clip-path="url(#clip-1)"><path d="M -27.12 72.81 L -54.22 75.04 L -54.55 26.34 L -27.1 24.26 M -27.12 72.81"/></g><g style="fill: rgba(38,34,28,1);fill-opacity: 1.0; stroke: none" transform="matrix(1,0,0,1,309.5,196)" clip-path="url(#clip-1)"><path d="M 47.46 12.06 L 74.19 10.06 L 79.38 17.23 L 52.34 19.28 M 47.46 12.06"/></g><g style="fill: rgba(227,213,163,1);fill-opacity: 1.0; stroke: none" transform="matrix(1,0,0,1,309.5,196)" clip-path="url(#clip-1)"><path d="M -93.31 -36.65 L -65.51 -38.51 L -64.5 67.79 L -91.54 69.99 M -93.31 -36.65"/></g><g style="fill: rgba(173,162,124,1);fill-opacity: 1.0; stroke: none" transform="matrix(1,0,0,1,309.5,196)" clip-path="url(#clip-1)"><path d="M -62.04 -33.97 L -34.9 -35.8 L -31.04 -29.19 L -58.5 -27.31 M -62.04 -33.97"/></g><g style="fill: rgba(156,167,150,1);fill-opacity: 1.0; stroke: none" transform="matrix(1,0,0,1,309.5,196)" clip-path="url(#clip-1)"><path d="M 123.12 76.81 L 149.59 74.57 L 155.69 82.53 L 128.92 84.83 M 123.12 76.81"/></g><g style="fill: rgba(119,112,85,1);fill-opacity: 1.0; stroke: none" transform="matrix(1,0,0,1,309.5,196)" clip-path="url(#clip-1)"><path d="M -162.34 67.74 L -165.01 -8.41 L -162.7 -1.37 L -160.04 75.56 M -162.34 67.74"/></g><g style="fill: rgba(119,112,85,1);fill-opacity: 1.0; stroke: none" transform="matrix(1,0,0,1,309.5,196)" clip-path="url(#clip-1)"><path d="M -166.96 76.12 L -169.18 68.29 L -172.02 -8.75 L -169.79 -1.7 M -166.96 76.12"/></g><g style="fill: rgba(26,23,19,1);fill-opacity: 1.0; stroke: none" transform="matrix(1,0,0,1,309.5,196)" clip-path="url(#clip-1)"><path d="M -20.37 72.25 L -20.28 29.32 L -16.21 36.8 L -16.34 80.17 M -20.37 72.25"/></g><g style="fill: rgba(119,112,85,1);fill-opacity: 1.0; stroke: none" transform="matrix(1,0,0,1,309.5,196)" clip-path="url(#clip-1)"><path d="M -128.33 65.01 L -131.62 -60.89 L -128.88 -54.44 L -125.63 72.76 M -128.33 65.01"/></g><g style="fill: rgba(108,115,103,1);fill-opacity: 1.0; stroke: none" transform="matrix(1,0,0,1,309.5,196)" clip-path="url(#clip-1)"><path d="M 156.17 74.01 L 158.36 28.76 L 164.64 36.24 L 162.34 81.96 M 156.17 74.01"/></g><g style="fill: rgba(108,115,103,1);fill-opacity: 1.0; stroke: none" transform="matrix(1,0,0,1,309.5,196)" clip-path="url(#clip-1)"><path d="M 155.69 82.53 L 149.59 74.57 L 151.45 34.62 L 157.64 42.17 M 155.69 82.53"/></g><g style="fill: rgba(50,45,37,1);fill-opacity: 1.0; stroke: none" transform="matrix(1,0,0,1,309.5,196)" clip-path="url(#clip-1)"><path d="M 18.28 19.21 L 45.59 17.15 L 44.49 75.09 L 17.58 77.33 M 18.28 19.21"/></g><g style="fill: rgba(205,219,197,1);fill-opacity: 1.0; stroke: none" transform="matrix(1,0,0,1,309.5,196)" clip-path="url(#clip-1)"><path d="M 116.48 77.38 L 89.77 79.64 L 90.95 41.55 L 117.92 39.41 M 116.48 77.38"/></g><g style="fill: rgba(26,23,19,1);fill-opacity: 1.0; stroke: none" transform="matrix(1,0,0,1,309.5,196)" clip-path="url(#clip-1)"><path d="M -23.17 80.74 L -27.12 72.81 L -27.1 24.26 L -23.1 31.7 M -23.17 80.74"/></g><g style="fill: rgba(38,34,28,1);fill-opacity: 1.0; stroke: none" transform="matrix(1,0,0,1,309.5,196)" clip-path="url(#clip-1)"><path d="M -88.39 77.86 L -61.03 75.6 L -57.47 83.6 L -85.15 85.92 M -88.39 77.86"/></g><g style="fill: rgba(173,162,124,1);fill-opacity: 1.0; stroke: none" transform="matrix(1,0,0,1,309.5,196)" clip-path="url(#clip-1)"><path d="M 5.9 -92.24 L 32.91 -93.86 L 37.61 -87.92 L 10.29 -86.26 M 5.9 -92.24"/></g><g style="fill: rgba(50,45,37,1);fill-opacity: 1.0; stroke: none" transform="matrix(1,0,0,1,309.5,196)" clip-path="url(#clip-1)"><path d="M -61.03 75.6 L -88.39 77.86 L -89.13 30.75 L -61.43 28.64 M -61.03 75.6"/></g><g style="fill: rgba(156,167,150,1);fill-opacity: 1.0; stroke: none" transform="matrix(1,0,0,1,309.5,196)" clip-path="url(#clip-1)"><path d="M 89.77 79.64 L 116.48 77.38 L 122.2 85.4 L 95.18 87.73 M 89.77 79.64"/></g><g style="fill: rgba(38,34,28,1);fill-opacity: 1.0; stroke: none" transform="matrix(1,0,0,1,309.5,196)" clip-path="url(#clip-1)"><path d="M 13.79 11.95 L 40.79 9.94 L 45.59 17.15 L 18.28 19.21 M 13.79 11.95"/></g><g style="fill: rgba(227,213,163,1);fill-opacity: 1.0; stroke: none" transform="matrix(1,0,0,1,309.5,196)" clip-path="url(#clip-1)"><path d="M -162.7 -1.37 L -134.58 -3.36 L -132.49 73.32 L -160.04 75.56 M -162.7 -1.37"/></g><g style="fill: rgba(119,112,85,1);fill-opacity: 1.0; stroke: none" transform="matrix(1,0,0,1,309.5,196)" clip-path="url(#clip-1)"><path d="M -196.66 70.5 L -200.07 -6.79 L -198.18 0.31 L -194.77 78.38 M -196.66 70.5"/></g><g style="fill: rgba(38,34,28,1);fill-opacity: 1.0; stroke: none" transform="matrix(1,0,0,1,309.5,196)" clip-path="url(#clip-1)"><path d="M -20.28 29.32 L 6.87 27.24 L 11.26 34.67 L -16.21 36.8 M -20.28 29.32"/></g><g style="fill: rgba(50,45,37,1);fill-opacity: 1.0; stroke: none" transform="matrix(1,0,0,1,309.5,196)" clip-path="url(#clip-1)"><path d="M -16.21 36.8 L 11.26 34.67 L 10.82 77.9 L -16.34 80.17 M -16.21 36.8"/></g><rect x="8.32" y="-106.28" width="27" height="12" style="fill: rgba(100,100,100,0.392157);fill-opacity: 1.0" transform="matrix(1,0,0,1,309.5,196)" clip-path="url(#clip-1)"/><g transform="matrix(1,0,0,1,309.5,196)"><text x="8.32" y="-97.28" style="fill: rgba(255,255,255,1); font-family: serif; font-size: 12px; " text-rendering="auto" clip-path="url(#clip-1)">54.50</text></g><g style="fill: rgba(0,0,0,0);fill-opacity: 1.0; stroke: none" transform="matrix(1,0,0,1,309.5,196)" clip-path="url(#clip-1)"><path d="M 18.37 -101.78 L 25.31 -102.19 L 25.26 -98.79 L 18.33 -98.38 M 18.37 -101.78"/></g><g style="fill: rgba(227,213,163,1);fill-opacity: 1.0; stroke: none" transform="matrix(1,0,0,1,309.5,196)" clip-path="url(#clip-1)"><path d="M -128.88 -54.44 L -100.66 -56.25 L -98.34 70.54 L -125.63 72.76 M -128.88 -54.44"/></g><g style="fill: rgba(108,115,103,1);fill-opacity: 1.0; stroke: none" transform="matrix(1,0,0,1,309.5,196)" clip-path="url(#clip-1)"><path d="M 123.12 76.81 L 124.72 36.73 L 130.6 44.34 L 128.92 84.83 M 123.12 76.81"/></g><g style="fill: rgba(156,167,150,1);fill-opacity: 1.0; stroke: none" transform="matrix(1,0,0,1,309.5,196)" clip-path="url(#clip-1)"><path d="M 158.36 28.76 L 184.88 26.68 L 191.46 34.11 L 164.64 36.24 M 158.36 28.76"/></g><g style="fill: rgba(205,219,197,1);fill-opacity: 1.0; stroke: none" transform="matrix(1,0,0,1,309.5,196)" clip-path="url(#clip-1)"><path d="M 164.64 36.24 L 191.46 34.11 L 188.86 79.68 L 162.34 81.96 M 164.64 36.24"/></g><g style="fill: rgba(173,162,124,1);fill-opacity: 1.0; stroke: none" transform="matrix(1,0,0,1,309.5,196)" clip-path="url(#clip-1)"><path d="M -96.46 -43.25 L -68.98 -45.06 L -65.51 -38.51 L -93.31 -36.65 M -96.46 -43.25"/></g><g style="fill: rgba(26,23,19,1);fill-opacity: 1.0; stroke: none" transform="matrix(1,0,0,1,309.5,196)" clip-path="url(#clip-1)"><path d="M -54.22 75.04 L -54.55 26.34 L -50.87 33.83 L -50.58 83.03 M -54.22 75.04"/></g><rect x="16.27" y="-1.4" width="27" height="12" style="fill: rgba(100,100,100,0.392157);fill-opacity: 1.0" transform="matrix(1,0,0,1,309.5,196)" clip-path="url(#clip-1)"/><g transform="matrix(1,0,0,1,309.5,196)"><text x="16.27" y="7.6" style="fill: rgba(255,255,255,1); font-family: serif; font-size: 12px; " text-rendering="auto" clip-path="url(#clip-1)">21.46</text></g><g style="fill: rgba(0,0,0,0);fill-opacity: 1.0; stroke: none" transform="matrix(1,0,0,1,309.5,196)" clip-path="url(#clip-1)"><path d="M 26.33 3.2 L 33.27 2.69 L 33.21 6.01 L 26.28 6.52 M 26.33 3.2"/></g><g style="fill: rgba(108,115,103,1);fill-opacity: 1.0; stroke: none" transform="matrix(1,0,0,1,309.5,196)" clip-path="url(#clip-1)"><path d="M 122.2 85.4 L 116.48 77.38 L 117.92 39.41 L 123.72 47.05 M 122.2 85.4"/></g><g style="fill: rgba(26,23,19,1);fill-opacity: 1.0; stroke: none" transform="matrix(1,0,0,1,309.5,196)" clip-path="url(#clip-1)"><path d="M -57.47 83.6 L -61.03 75.6 L -61.43 28.64 L -57.83 36.16 M -57.47 83.6"/></g><g style="fill: rgba(205,219,197,1);fill-opacity: 1.0; stroke: none" transform="matrix(1,0,0,1,309.5,196)" clip-path="url(#clip-1)"><path d="M 83.06 80.21 L 56.09 82.49 L 56.93 44.62 L 84.16 42.46 M 83.06 80.21"/></g><g style="fill: rgba(38,34,28,1);fill-opacity: 1.0; stroke: none" transform="matrix(1,0,0,1,309.5,196)" clip-path="url(#clip-1)"><path d="M -122.87 80.7 L -95.26 78.42 L -92.1 86.5 L -120.05 88.83 M -122.87 80.7"/></g><g style="fill: rgba(173,162,124,1);fill-opacity: 1.0; stroke: none" transform="matrix(1,0,0,1,309.5,196)" clip-path="url(#clip-1)"><path d="M -165.01 -8.41 L -137.22 -10.35 L -134.58 -3.36 L -162.7 -1.37 M -165.01 -8.41"/></g><g style="fill: rgba(156,167,150,1);fill-opacity: 1.0; stroke: none" transform="matrix(1,0,0,1,309.5,196)" clip-path="url(#clip-1)"><path d="M 56.09 82.49 L 83.06 80.21 L 88.4 88.31 L 61.12 90.65 M 56.09 82.49"/></g><g style="fill: rgba(0,0,0,0);fill-opacity: 1.0; stroke: none" transform="matrix(1,0,0,1,309.5,196)" clip-path="url(#clip-1)"><path d="M 172.04 20.12 L 178.85 19.59 L 178.68 22.9 L 171.87 23.43 M 172.04 20.12"/></g><rect x="161.86" y="15.51" width="27" height="12" style="fill: rgba(100,100,100,0.392157);fill-opacity: 1.0" transform="matrix(1,0,0,1,309.5,196)" clip-path="url(#clip-1)"/><g transform="matrix(1,0,0,1,309.5,196)"><text x="161.86" y="24.51" style="fill: rgba(255,255,255,1); font-family: serif; font-size: 12px; " text-rendering="auto" clip-path="url(#clip-1)">16.86</text></g><g style="fill: rgba(227,213,163,1);fill-opacity: 1.0; stroke: none" transform="matrix(1,0,0,1,309.5,196)" clip-path="url(#clip-1)"><path d="M -198.18 0.31 L -169.79 -1.7 L -166.96 76.12 L -194.77 78.38 M -198.18 0.31"/></g><g style="fill: rgba(50,45,37,1);fill-opacity: 1.0; stroke: none" transform="matrix(1,0,0,1,309.5,196)" clip-path="url(#clip-1)"><path d="M -95.26 78.42 L -122.87 80.7 L -124.29 23.8 L -96.25 21.71 M -95.26 78.42"/></g><g style="fill: rgba(156,167,150,1);fill-opacity: 1.0; stroke: none" transform="matrix(1,0,0,1,309.5,196)" clip-path="url(#clip-1)"><path d="M 124.72 36.73 L 151.45 34.62 L 157.64 42.17 L 130.6 44.34 M 124.72 36.73"/></g><g style="fill: rgba(205,219,197,1);fill-opacity: 1.0; stroke: none" transform="matrix(1,0,0,1,309.5,196)" clip-path="url(#clip-1)"><path d="M 130.6 44.34 L 157.64 42.17 L 155.69 82.53 L 128.92 84.83 M 130.6 44.34"/></g><g style="fill: rgba(108,115,103,1);fill-opacity: 1.0; stroke: none" transform="matrix(1,0,0,1,309.5,196)" clip-path="url(#clip-1)"><path d="M 89.77 79.64 L 90.95 41.55 L 96.43 49.25 L 95.18 87.73 M 89.77 79.64"/></g><g style="fill: rgba(50,45,37,1);fill-opacity: 1.0; stroke: none" transform="matrix(1,0,0,1,309.5,196)" clip-path="url(#clip-1)"><path d="M -50.87 33.83 L -23.1 31.7 L -23.17 80.74 L -50.58 83.03 M -50.87 33.83"/></g><g style="fill: rgba(26,23,19,1);fill-opacity: 1.0; stroke: none" transform="matrix(1,0,0,1,309.5,196)" clip-path="url(#clip-1)"><path d="M -88.39 77.86 L -89.13 30.75 L -85.86 38.32 L -85.15 85.92 M -88.39 77.86"/></g><g style="fill: rgba(38,34,28,1);fill-opacity: 1.0; stroke: none" transform="matrix(1,0,0,1,309.5,196)" clip-path="url(#clip-1)"><path d="M -54.55 26.34 L -27.1 24.26 L -23.1 31.7 L -50.87 33.83 M -54.55 26.34"/></g><g style="fill: rgba(108,115,103,1);fill-opacity: 1.0; stroke: none" transform="matrix(1,0,0,1,309.5,196)" clip-path="url(#clip-1)"><path d="M 88.4 88.31 L 83.06 80.21 L 84.16 42.46 L 89.57 50.17 M 88.4 88.31"/></g><g style="fill: rgba(0,0,0,0);fill-opacity: 1.0; stroke: none" transform="matrix(1,0,0,1,309.5,196)" clip-path="url(#clip-1)"><path d="M 138.18 28.12 L 145.05 27.58 L 144.9 30.9 L 138.04 31.44 M 138.18 28.12"/></g><rect x="128.05" y="23.51" width="27" height="12" style="fill: rgba(100,100,100,0.392157);fill-opacity: 1.0" transform="matrix(1,0,0,1,309.5,196)" clip-path="url(#clip-1)"/><g transform="matrix(1,0,0,1,309.5,196)"><text x="128.05" y="32.51" style="fill: rgba(255,255,255,1); font-family: serif; font-size: 12px; " text-rendering="auto" clip-path="url(#clip-1)">14.89</text></g><g style="fill: rgba(241,0,0,1);fill-opacity: 1.0; stroke: none" transform="matrix(1,0,0,1,309.5,196)" clip-path="url(#clip-1)"><path d="M 49.32 83.07 L 22.1 85.37 L 22.62 46.11 L 50.12 43.93 M 49.32 83.07"/></g><g style="fill: rgba(38,34,28,1);fill-opacity: 1.0; stroke: none" transform="matrix(1,0,0,1,309.5,196)" clip-path="url(#clip-1)"><path d="M -157.69 83.57 L -129.81 81.27 L -127.06 89.42 L -155.27 91.78 M -157.69 83.57"/></g><g style="fill: rgba(50,45,37,1);fill-opacity: 1.0; stroke: none" transform="matrix(1,0,0,1,309.5,196)" clip-path="url(#clip-1)"><path d="M -129.81 81.27 L -157.69 83.57 L -159.3 36.19 L -131.07 34.04 M -129.81 81.27"/></g><g style="fill: rgba(173,162,124,1);fill-opacity: 1.0; stroke: none" transform="matrix(1,0,0,1,309.5,196)" clip-path="url(#clip-1)"><path d="M -200.07 -6.79 L -172.02 -8.75 L -169.79 -1.7 L -198.18 0.31 M -200.07 -6.79"/></g><g style="fill: rgba(184,0,0,1);fill-opacity: 1.0; stroke: none" transform="matrix(1,0,0,1,309.5,196)" clip-path="url(#clip-1)"><path d="M 22.1 85.37 L 49.32 83.07 L 54.27 91.24 L 26.73 93.61 M 22.1 85.37"/></g><g style="fill: rgba(26,23,19,1);fill-opacity: 1.0; stroke: none" transform="matrix(1,0,0,1,309.5,196)" clip-path="url(#clip-1)"><path d="M -92.1 86.5 L -95.26 78.42 L -96.25 21.71 L -93.06 29.2 M -92.1 86.5"/></g><g style="fill: rgba(156,167,150,1);fill-opacity: 1.0; stroke: none" transform="matrix(1,0,0,1,309.5,196)" clip-path="url(#clip-1)"><path d="M 90.95 41.55 L 117.92 39.41 L 123.72 47.05 L 96.43 49.25 M 90.95 41.55"/></g><g style="fill: rgba(205,219,197,1);fill-opacity: 1.0; stroke: none" transform="matrix(1,0,0,1,309.5,196)" clip-path="url(#clip-1)"><path d="M 96.43 49.25 L 123.72 47.05 L 122.2 85.4 L 95.18 87.73 M 96.43 49.25"/></g><g style="fill: rgba(50,45,37,1);fill-opacity: 1.0; stroke: none" transform="matrix(1,0,0,1,309.5,196)" clip-path="url(#clip-1)"><path d="M -85.86 38.32 L -57.83 36.16 L -57.47 83.6 L -85.15 85.92 M -85.86 38.32"/></g><g style="fill: rgba(108,115,103,1);fill-opacity: 1.0; stroke: none" transform="matrix(1,0,0,1,309.5,196)" clip-path="url(#clip-1)"><path d="M 56.09 82.49 L 56.93 44.62 L 62.02 52.39 L 61.12 90.65 M 56.09 82.49"/></g><g style="fill: rgba(38,34,28,1);fill-opacity: 1.0; stroke: none" transform="matrix(1,0,0,1,309.5,196)" clip-path="url(#clip-1)"><path d="M -89.13 30.75 L -61.43 28.64 L -57.83 36.16 L -85.86 38.32 M -89.13 30.75"/></g><g style="fill: rgba(173,162,124,1);fill-opacity: 1.0; stroke: none" transform="matrix(1,0,0,1,309.5,196)" clip-path="url(#clip-1)"><path d="M -131.62 -60.89 L -103.74 -62.65 L -100.66 -56.25 L -128.88 -54.44 M -131.62 -60.89"/></g><rect x="94.12" y="28.33" width="27" height="12" style="fill: rgba(100,100,100,0.392157);fill-opacity: 1.0" transform="matrix(1,0,0,1,309.5,196)" clip-path="url(#clip-1)"/><g transform="matrix(1,0,0,1,309.5,196)"><text x="94.12" y="37.33" style="fill: rgba(255,255,255,1); font-family: serif; font-size: 12px; " text-rendering="auto" clip-path="url(#clip-1)">14.11</text></g><g style="fill: rgba(0,0,0,0);fill-opacity: 1.0; stroke: none" transform="matrix(1,0,0,1,309.5,196)" clip-path="url(#clip-1)"><path d="M 104.21 32.94 L 111.14 32.39 L 111.02 35.72 L 104.09 36.27 M 104.21 32.94"/></g><g style="fill: rgba(127,0,0,1);fill-opacity: 1.0; stroke: none" transform="matrix(1,0,0,1,309.5,196)" clip-path="url(#clip-1)"><path d="M 54.27 91.24 L 49.32 83.07 L 50.12 43.93 L 55.13 51.7 M 54.27 91.24"/></g><g style="fill: rgba(26,23,19,1);fill-opacity: 1.0; stroke: none" transform="matrix(1,0,0,1,309.5,196)" clip-path="url(#clip-1)"><path d="M -127.06 89.42 L -129.81 81.27 L -131.07 34.04 L -128.3 41.7 M -127.06 89.42"/></g><g style="fill: rgba(205,219,197,1);fill-opacity: 1.0; stroke: none" transform="matrix(1,0,0,1,309.5,196)" clip-path="url(#clip-1)"><path d="M 15.26 85.95 L -12.21 88.28 L -12.05 49.74 L 15.7 47.53 M 15.26 85.95"/></g><g style="fill: rgba(26,23,19,1);fill-opacity: 1.0; stroke: none" transform="matrix(1,0,0,1,309.5,196)" clip-path="url(#clip-1)"><path d="M -122.87 80.7 L -124.29 23.8 L -121.43 31.35 L -120.05 88.83 M -122.87 80.7"/></g><g style="fill: rgba(38,34,28,1);fill-opacity: 1.0; stroke: none" transform="matrix(1,0,0,1,309.5,196)" clip-path="url(#clip-1)"><path d="M -192.83 86.47 L -164.69 84.15 L -162.36 92.37 L -190.84 94.75 M -192.83 86.47"/></g><g style="fill: rgba(50,45,37,1);fill-opacity: 1.0; stroke: none" transform="matrix(1,0,0,1,309.5,196)" clip-path="url(#clip-1)"><path d="M -164.69 84.15 L -192.83 86.47 L -194.89 38.89 L -166.39 36.73 M -164.69 84.15"/></g><g style="fill: rgba(156,167,150,1);fill-opacity: 1.0; stroke: none" transform="matrix(1,0,0,1,309.5,196)" clip-path="url(#clip-1)"><path d="M -12.21 88.28 L 15.26 85.95 L 19.82 94.2 L -7.98 96.59 M -12.21 88.28"/></g><g style="fill: rgba(156,167,150,1);fill-opacity: 1.0; stroke: none" transform="matrix(1,0,0,1,309.5,196)" clip-path="url(#clip-1)"><path d="M 56.93 44.62 L 84.16 42.46 L 89.57 50.17 L 62.02 52.39 M 56.93 44.62"/></g><g style="fill: rgba(205,219,197,1);fill-opacity: 1.0; stroke: none" transform="matrix(1,0,0,1,309.5,196)" clip-path="url(#clip-1)"><path d="M 62.02 52.39 L 89.57 50.17 L 88.4 88.31 L 61.12 90.65 M 62.02 52.39"/></g><g style="fill: rgba(127,0,0,1);fill-opacity: 1.0; stroke: none" transform="matrix(1,0,0,1,309.5,196)" clip-path="url(#clip-1)"><path d="M 22.1 85.37 L 22.62 46.11 L 27.31 53.94 L 26.73 93.61 M 22.1 85.37"/></g><g style="fill: rgba(26,23,19,1);fill-opacity: 1.0; stroke: none" transform="matrix(1,0,0,1,309.5,196)" clip-path="url(#clip-1)"><path d="M -157.69 83.57 L -159.3 36.19 L -156.88 43.91 L -155.27 91.78 M -157.69 83.57"/></g><g style="fill: rgba(129,125,98,1);fill-opacity: 1.0; stroke: none" transform="matrix(1,0,0,1,309.5,196)" clip-path="url(#clip-1)"><path d="M 161.93 90.68 L 134.86 93.04 L 135.96 67.67 L 163.2 65.39 M 161.93 90.68"/></g><g style="fill: rgba(205,219,197,1);fill-opacity: 1.0; stroke: none" transform="matrix(1,0,0,1,309.5,196)" clip-path="url(#clip-1)"><path d="M -19.12 88.86 L -46.86 91.21 L -47.02 57.74 L -19.04 55.5 M -19.12 88.86"/></g><g style="fill: rgba(0,0,0,0);fill-opacity: 1.0; stroke: none" transform="matrix(1,0,0,1,309.5,196)" clip-path="url(#clip-1)"><path d="M 69.99 35.99 L 76.99 35.44 L 76.89 38.78 L 69.91 39.33 M 69.99 35.99"/></g><rect x="59.95" y="31.39" width="27" height="12" style="fill: rgba(100,100,100,0.392157);fill-opacity: 1.0" transform="matrix(1,0,0,1,309.5,196)" clip-path="url(#clip-1)"/><g transform="matrix(1,0,0,1,309.5,196)"><text x="59.95" y="40.39" style="fill: rgba(255,255,255,1); font-family: serif; font-size: 12px; " text-rendering="auto" clip-path="url(#clip-1)">13.97</text></g><g style="fill: rgba(108,115,103,1);fill-opacity: 1.0; stroke: none" transform="matrix(1,0,0,1,309.5,196)" clip-path="url(#clip-1)"><path d="M 19.82 94.2 L 15.26 85.95 L 15.7 47.53 L 20.31 55.39 M 19.82 94.2"/></g><g style="fill: rgba(50,45,37,1);fill-opacity: 1.0; stroke: none" transform="matrix(1,0,0,1,309.5,196)" clip-path="url(#clip-1)"><path d="M -121.43 31.35 L -93.06 29.2 L -92.1 86.5 L -120.05 88.83 M -121.43 31.35"/></g><g style="fill: rgba(26,23,19,1);fill-opacity: 1.0; stroke: none" transform="matrix(1,0,0,1,309.5,196)" clip-path="url(#clip-1)"><path d="M -162.36 92.37 L -164.69 84.15 L -166.39 36.73 L -164.05 44.46 M -162.36 92.37"/></g><g style="fill: rgba(38,34,28,1);fill-opacity: 1.0; stroke: none" transform="matrix(1,0,0,1,309.5,196)" clip-path="url(#clip-1)"><path d="M -124.29 23.8 L -96.25 21.71 L -93.06 29.2 L -121.43 31.35 M -124.29 23.8"/></g><g style="fill: rgba(156,167,150,1);fill-opacity: 1.0; stroke: none" transform="matrix(1,0,0,1,309.5,196)" clip-path="url(#clip-1)"><path d="M -46.86 91.21 L -19.12 88.86 L -14.97 97.19 L -43.04 99.6 M -46.86 91.21"/></g><g style="fill: rgba(98,95,75,1);fill-opacity: 1.0; stroke: none" transform="matrix(1,0,0,1,309.5,196)" clip-path="url(#clip-1)"><path d="M 134.86 93.04 L 161.93 90.68 L 168.34 99.03 L 140.95 101.46 M 134.86 93.04"/></g><g style="fill: rgba(184,0,0,1);fill-opacity: 1.0; stroke: none" transform="matrix(1,0,0,1,309.5,196)" clip-path="url(#clip-1)"><path d="M 22.62 46.11 L 50.12 43.93 L 55.13 51.7 L 27.31 53.94 M 22.62 46.11"/></g><g style="fill: rgba(241,0,0,1);fill-opacity: 1.0; stroke: none" transform="matrix(1,0,0,1,309.5,196)" clip-path="url(#clip-1)"><path d="M 27.31 53.94 L 55.13 51.7 L 54.27 91.24 L 26.73 93.61 M 27.31 53.94"/></g><g style="fill: rgba(50,45,37,1);fill-opacity: 1.0; stroke: none" transform="matrix(1,0,0,1,309.5,196)" clip-path="url(#clip-1)"><path d="M -156.88 43.91 L -128.3 41.7 L -127.06 89.42 L -155.27 91.78 M -156.88 43.91"/></g><g style="fill: rgba(38,34,28,1);fill-opacity: 1.0; stroke: none" transform="matrix(1,0,0,1,309.5,196)" clip-path="url(#clip-1)"><path d="M -159.3 36.19 L -131.07 34.04 L -128.3 41.7 L -156.88 43.91 M -159.3 36.19"/></g><g style="fill: rgba(68,65,51,1);fill-opacity: 1.0; stroke: none" transform="matrix(1,0,0,1,309.5,196)" clip-path="url(#clip-1)"><path d="M 168.34 99.03 L 161.93 90.68 L 163.2 65.39 L 169.66 73.48 M 168.34 99.03"/></g><g style="fill: rgba(108,115,103,1);fill-opacity: 1.0; stroke: none" transform="matrix(1,0,0,1,309.5,196)" clip-path="url(#clip-1)"><path d="M -12.21 88.28 L -12.05 49.74 L -7.78 57.65 L -7.98 96.59 M -12.21 88.28"/></g><g style="fill: rgba(129,125,98,1);fill-opacity: 1.0; stroke: none" transform="matrix(1,0,0,1,309.5,196)" clip-path="url(#clip-1)"><path d="M 128.06 93.63 L 100.74 96.01 L 101.52 73.03 L 129.01 70.73 M 128.06 93.63"/></g><g style="fill: rgba(205,219,197,1);fill-opacity: 1.0; stroke: none" transform="matrix(1,0,0,1,309.5,196)" clip-path="url(#clip-1)"><path d="M -53.83 91.8 L -81.83 94.18 L -82.25 64.9 L -54.02 62.63 M -53.83 91.8"/></g><g style="fill: rgba(108,115,103,1);fill-opacity: 1.0; stroke: none" transform="matrix(1,0,0,1,309.5,196)" clip-path="url(#clip-1)"><path d="M -14.97 97.19 L -19.12 88.86 L -19.04 55.5 L -14.85 63.48 M -14.97 97.19"/></g><g style="fill: rgba(26,23,19,1);fill-opacity: 1.0; stroke: none" transform="matrix(1,0,0,1,309.5,196)" clip-path="url(#clip-1)"><path d="M -192.83 86.47 L -194.89 38.89 L -192.9 46.68 L -190.84 94.75 M -192.83 86.47"/></g><rect x="25.48" y="32.85" width="27" height="12" style="fill: rgba(100,100,100,0.392157);fill-opacity: 1.0" transform="matrix(1,0,0,1,309.5,196)" clip-path="url(#clip-1)"/><g transform="matrix(1,0,0,1,309.5,196)"><text x="25.48" y="41.85" style="fill: rgba(255,255,255,1); font-family: serif; font-size: 12px; " text-rendering="auto" clip-path="url(#clip-1)">14.42</text></g><g style="fill: rgba(0,0,0,0);fill-opacity: 1.0; stroke: none" transform="matrix(1,0,0,1,309.5,196)" clip-path="url(#clip-1)"><path d="M 35.48 37.45 L 42.54 36.9 L 42.48 40.25 L 35.42 40.81 M 35.48 37.45"/></g><g style="fill: rgba(156,167,150,1);fill-opacity: 1.0; stroke: none" transform="matrix(1,0,0,1,309.5,196)" clip-path="url(#clip-1)"><path d="M -81.83 94.18 L -53.83 91.8 L -50.09 100.21 L -78.43 102.64 M -81.83 94.18"/></g><g style="fill: rgba(156,167,150,1);fill-opacity: 1.0; stroke: none" transform="matrix(1,0,0,1,309.5,196)" clip-path="url(#clip-1)"><path d="M -12.05 49.74 L 15.7 47.53 L 20.31 55.39 L -7.78 57.65 M -12.05 49.74"/></g><g style="fill: rgba(98,95,75,1);fill-opacity: 1.0; stroke: none" transform="matrix(1,0,0,1,309.5,196)" clip-path="url(#clip-1)"><path d="M 100.74 96.01 L 128.06 93.63 L 134.08 102.06 L 106.43 104.51 M 100.74 96.01"/></g><g style="fill: rgba(68,65,51,1);fill-opacity: 1.0; stroke: none" transform="matrix(1,0,0,1,309.5,196)" clip-path="url(#clip-1)"><path d="M 134.86 93.04 L 135.96 67.67 L 142.1 75.82 L 140.95 101.46 M 134.86 93.04"/></g><g style="fill: rgba(108,115,103,1);fill-opacity: 1.0; stroke: none" transform="matrix(1,0,0,1,309.5,196)" clip-path="url(#clip-1)"><path d="M -46.86 91.21 L -47.02 57.74 L -43.17 65.78 L -43.04 99.6 M -46.86 91.21"/></g><g style="fill: rgba(205,219,197,1);fill-opacity: 1.0; stroke: none" transform="matrix(1,0,0,1,309.5,196)" clip-path="url(#clip-1)"><path d="M -7.78 57.65 L 20.31 55.39 L 19.82 94.2 L -7.98 96.59 M -7.78 57.65"/></g><g style="fill: rgba(68,65,51,1);fill-opacity: 1.0; stroke: none" transform="matrix(1,0,0,1,309.5,196)" clip-path="url(#clip-1)"><path d="M 134.08 102.06 L 128.06 93.63 L 129.01 70.73 L 135.07 78.92 M 134.08 102.06"/></g><g style="fill: rgba(108,115,103,1);fill-opacity: 1.0; stroke: none" transform="matrix(1,0,0,1,309.5,196)" clip-path="url(#clip-1)"><path d="M -50.09 100.21 L -53.83 91.8 L -54.02 62.63 L -50.26 70.73 M -50.09 100.21"/></g><g style="fill: rgba(50,45,37,1);fill-opacity: 1.0; stroke: none" transform="matrix(1,0,0,1,309.5,196)" clip-path="url(#clip-1)"><path d="M -192.9 46.68 L -164.05 44.46 L -162.36 92.37 L -190.84 94.75 M -192.9 46.68"/></g><g style="fill: rgba(38,34,28,1);fill-opacity: 1.0; stroke: none" transform="matrix(1,0,0,1,309.5,196)" clip-path="url(#clip-1)"><path d="M -194.89 38.89 L -166.39 36.73 L -164.05 44.46 L -192.9 46.68 M -194.89 38.89"/></g><g style="fill: rgba(205,219,197,1);fill-opacity: 1.0; stroke: none" transform="matrix(1,0,0,1,309.5,196)" clip-path="url(#clip-1)"><path d="M -88.87 94.77 L -117.15 97.17 L -117.83 67.97 L -89.33 65.67 M -88.87 94.77"/></g><g style="fill: rgba(98,95,75,1);fill-opacity: 1.0; stroke: none" transform="matrix(1,0,0,1,309.5,196)" clip-path="url(#clip-1)"><path d="M 135.96 67.67 L 163.2 65.39 L 169.66 73.48 L 142.1 75.82 M 135.96 67.67"/></g><g style="fill: rgba(0,0,0,0);fill-opacity: 1.0; stroke: none" transform="matrix(1,0,0,1,309.5,196)" clip-path="url(#clip-1)"><path d="M 0.59 41.07 L 7.72 40.51 L 7.69 43.87 L 0.57 44.44 M 0.59 41.07"/></g><rect x="-9.35" y="36.47" width="27" height="12" style="fill: rgba(100,100,100,0.392157);fill-opacity: 1.0" transform="matrix(1,0,0,1,309.5,196)" clip-path="url(#clip-1)"/><g transform="matrix(1,0,0,1,309.5,196)"><text x="-9.35" y="45.47" style="fill: rgba(255,255,255,1); font-family: serif; font-size: 12px; " text-rendering="auto" clip-path="url(#clip-1)">14.10</text></g><g style="fill: rgba(129,125,98,1);fill-opacity: 1.0; stroke: none" transform="matrix(1,0,0,1,309.5,196)" clip-path="url(#clip-1)"><path d="M 93.87 96.61 L 66.28 99.02 L 67.03 68.79 L 94.84 66.48 M 93.87 96.61"/></g><g style="fill: rgba(156,167,150,1);fill-opacity: 1.0; stroke: none" transform="matrix(1,0,0,1,309.5,196)" clip-path="url(#clip-1)"><path d="M -47.02 57.74 L -19.04 55.5 L -14.85 63.48 L -43.17 65.78 M -47.02 57.74"/></g><g style="fill: rgba(156,167,150,1);fill-opacity: 1.0; stroke: none" transform="matrix(1,0,0,1,309.5,196)" clip-path="url(#clip-1)"><path d="M -117.15 97.17 L -88.87 94.77 L -85.55 103.25 L -114.18 105.71 M -117.15 97.17"/></g><g style="fill: rgba(129,125,98,1);fill-opacity: 1.0; stroke: none" transform="matrix(1,0,0,1,309.5,196)" clip-path="url(#clip-1)"><path d="M 142.1 75.82 L 169.66 73.48 L 168.34 99.03 L 140.95 101.46 M 142.1 75.82"/></g><g style="fill: rgba(98,95,75,1);fill-opacity: 1.0; stroke: none" transform="matrix(1,0,0,1,309.5,196)" clip-path="url(#clip-1)"><path d="M 66.28 99.02 L 93.87 96.61 L 99.48 105.12 L 71.56 107.59 M 66.28 99.02"/></g><g style="fill: rgba(68,65,51,1);fill-opacity: 1.0; stroke: none" transform="matrix(1,0,0,1,309.5,196)" clip-path="url(#clip-1)"><path d="M 100.74 96.01 L 101.52 73.03 L 107.25 81.29 L 106.43 104.51 M 100.74 96.01"/></g><g style="fill: rgba(108,115,103,1);fill-opacity: 1.0; stroke: none" transform="matrix(1,0,0,1,309.5,196)" clip-path="url(#clip-1)"><path d="M -81.83 94.18 L -82.25 64.9 L -78.83 73.07 L -78.43 102.64 M -81.83 94.18"/></g><g style="fill: rgba(205,219,197,1);fill-opacity: 1.0; stroke: none" transform="matrix(1,0,0,1,309.5,196)" clip-path="url(#clip-1)"><path d="M -43.17 65.78 L -14.85 63.48 L -14.97 97.19 L -43.04 99.6 M -43.17 65.78"/></g><g style="fill: rgba(0,0,0,0);fill-opacity: 1.0; stroke: none" transform="matrix(1,0,0,1,309.5,196)" clip-path="url(#clip-1)"><path d="M -34.61 49.1 L -27.42 48.53 L -27.42 51.9 L -34.6 52.48 M -34.61 49.1"/></g><rect x="-44.51" y="44.5" width="27" height="12" style="fill: rgba(100,100,100,0.392157);fill-opacity: 1.0" transform="matrix(1,0,0,1,309.5,196)" clip-path="url(#clip-1)"/><g transform="matrix(1,0,0,1,309.5,196)"><text x="-44.51" y="53.5" style="fill: rgba(255,255,255,1); font-family: serif; font-size: 12px; " text-rendering="auto" clip-path="url(#clip-1)">12.21</text></g><g style="fill: rgba(108,115,103,1);fill-opacity: 1.0; stroke: none" transform="matrix(1,0,0,1,309.5,196)" clip-path="url(#clip-1)"><path d="M -85.55 103.25 L -88.87 94.77 L -89.33 65.67 L -86 73.85 M -85.55 103.25"/></g><g style="fill: rgba(98,95,75,1);fill-opacity: 1.0; stroke: none" transform="matrix(1,0,0,1,309.5,196)" clip-path="url(#clip-1)"><path d="M 101.52 73.03 L 129.01 70.73 L 135.07 78.92 L 107.25 81.29 M 101.52 73.03"/></g><g style="fill: rgba(205,219,197,1);fill-opacity: 1.0; stroke: none" transform="matrix(1,0,0,1,309.5,196)" clip-path="url(#clip-1)"><path d="M -124.25 97.77 L -152.8 100.19 L -153.69 73.27 L -124.93 70.94 M -124.25 97.77"/></g><g style="fill: rgba(129,125,98,1);fill-opacity: 1.0; stroke: none" transform="matrix(1,0,0,1,309.5,196)" clip-path="url(#clip-1)"><path d="M 59.35 99.62 L 31.48 102.05 L 31.88 77.25 L 59.92 74.9 M 59.35 99.62"/></g><g style="fill: rgba(68,65,51,1);fill-opacity: 1.0; stroke: none" transform="matrix(1,0,0,1,309.5,196)" clip-path="url(#clip-1)"><path d="M 99.48 105.12 L 93.87 96.61 L 94.84 66.48 L 100.51 74.68 M 99.48 105.12"/></g><g style="fill: rgba(156,167,150,1);fill-opacity: 1.0; stroke: none" transform="matrix(1,0,0,1,309.5,196)" clip-path="url(#clip-1)"><path d="M -82.25 64.9 L -54.02 62.63 L -50.26 70.73 L -78.83 73.07 M -82.25 64.9"/></g><g style="fill: rgba(156,167,150,1);fill-opacity: 1.0; stroke: none" transform="matrix(1,0,0,1,309.5,196)" clip-path="url(#clip-1)"><path d="M -152.8 100.19 L -124.25 97.77 L -121.37 106.33 L -150.27 108.81 M -152.8 100.19"/></g><g style="fill: rgba(129,125,98,1);fill-opacity: 1.0; stroke: none" transform="matrix(1,0,0,1,309.5,196)" clip-path="url(#clip-1)"><path d="M 107.25 81.29 L 135.07 78.92 L 134.08 102.06 L 106.43 104.51 M 107.25 81.29"/></g><g style="fill: rgba(205,219,197,1);fill-opacity: 1.0; stroke: none" transform="matrix(1,0,0,1,309.5,196)" clip-path="url(#clip-1)"><path d="M -78.83 73.07 L -50.26 70.73 L -50.09 100.21 L -78.43 102.64 M -78.83 73.07"/></g><rect x="-79.93" y="51.69" width="27" height="12" style="fill: rgba(100,100,100,0.392157);fill-opacity: 1.0" transform="matrix(1,0,0,1,309.5,196)" clip-path="url(#clip-1)"/><g transform="matrix(1,0,0,1,309.5,196)"><text x="-79.93" y="60.69" style="fill: rgba(255,255,255,1); font-family: serif; font-size: 12px; " text-rendering="auto" clip-path="url(#clip-1)">10.65</text></g><g style="fill: rgba(0,0,0,0);fill-opacity: 1.0; stroke: none" transform="matrix(1,0,0,1,309.5,196)" clip-path="url(#clip-1)"><path d="M -70.07 56.29 L -62.82 55.71 L -62.78 59.09 L -70.03 59.67 M -70.07 56.29"/></g><g style="fill: rgba(98,95,75,1);fill-opacity: 1.0; stroke: none" transform="matrix(1,0,0,1,309.5,196)" clip-path="url(#clip-1)"><path d="M 31.48 102.05 L 59.35 99.62 L 64.55 108.21 L 36.35 110.7 M 31.48 102.05"/></g><g style="fill: rgba(108,115,103,1);fill-opacity: 1.0; stroke: none" transform="matrix(1,0,0,1,309.5,196)" clip-path="url(#clip-1)"><path d="M -117.15 97.17 L -117.83 67.97 L -114.85 76.21 L -114.18 105.71 M -117.15 97.17"/></g><g style="fill: rgba(108,115,103,1);fill-opacity: 1.0; stroke: none" transform="matrix(1,0,0,1,309.5,196)" clip-path="url(#clip-1)"><path d="M -121.37 106.33 L -124.25 97.77 L -124.93 70.94 L -122.03 79.22 M -121.37 106.33"/></g><g style="fill: rgba(68,65,51,1);fill-opacity: 1.0; stroke: none" transform="matrix(1,0,0,1,309.5,196)" clip-path="url(#clip-1)"><path d="M 66.28 99.02 L 67.03 68.79 L 72.37 77.05 L 71.56 107.59 M 66.28 99.02"/></g><g style="fill: rgba(205,219,197,1);fill-opacity: 1.0; stroke: none" transform="matrix(1,0,0,1,309.5,196)" clip-path="url(#clip-1)"><path d="M -159.98 100.8 L -188.81 103.24 L -189.87 78.14 L -160.84 75.78 M -159.98 100.8"/></g><g style="fill: rgba(68,65,51,1);fill-opacity: 1.0; stroke: none" transform="matrix(1,0,0,1,309.5,196)" clip-path="url(#clip-1)"><path d="M 64.55 108.21 L 59.35 99.62 L 59.92 74.9 L 65.16 83.24 M 64.55 108.21"/></g><g style="fill: rgba(129,125,98,1);fill-opacity: 1.0; stroke: none" transform="matrix(1,0,0,1,309.5,196)" clip-path="url(#clip-1)"><path d="M 24.49 102.66 L -3.65 105.11 L -3.48 79.83 L 24.84 77.46 M 24.49 102.66"/></g><g style="fill: rgba(156,167,150,1);fill-opacity: 1.0; stroke: none" transform="matrix(1,0,0,1,309.5,196)" clip-path="url(#clip-1)"><path d="M -117.83 67.97 L -89.33 65.67 L -86 73.85 L -114.85 76.21 M -117.83 67.97"/></g><g style="fill: rgba(98,95,75,1);fill-opacity: 1.0; stroke: none" transform="matrix(1,0,0,1,309.5,196)" clip-path="url(#clip-1)"><path d="M 67.03 68.79 L 94.84 66.48 L 100.51 74.68 L 72.37 77.05 M 67.03 68.79"/></g><g style="fill: rgba(156,167,150,1);fill-opacity: 1.0; stroke: none" transform="matrix(1,0,0,1,309.5,196)" clip-path="url(#clip-1)"><path d="M -188.81 103.24 L -159.98 100.8 L -157.53 109.44 L -186.72 111.94 M -188.81 103.24"/></g><g style="fill: rgba(205,219,197,1);fill-opacity: 1.0; stroke: none" transform="matrix(1,0,0,1,309.5,196)" clip-path="url(#clip-1)"><path d="M -114.85 76.21 L -86 73.85 L -85.55 103.25 L -114.18 105.71 M -114.85 76.21"/></g><g style="fill: rgba(108,115,103,1);fill-opacity: 1.0; stroke: none" transform="matrix(1,0,0,1,309.5,196)" clip-path="url(#clip-1)"><path d="M -152.8 100.19 L -153.69 73.27 L -151.15 81.62 L -150.27 108.81 M -152.8 100.19"/></g><g style="fill: rgba(0,0,0,0);fill-opacity: 1.0; stroke: none" transform="matrix(1,0,0,1,309.5,196)" clip-path="url(#clip-1)"><path d="M -105.88 59.34 L -98.55 58.76 L -98.49 62.15 L -105.81 62.73 M -105.88 59.34"/></g><rect x="-115.68" y="54.75" width="27" height="12" style="fill: rgba(100,100,100,0.392157);fill-opacity: 1.0" transform="matrix(1,0,0,1,309.5,196)" clip-path="url(#clip-1)"/><g transform="matrix(1,0,0,1,309.5,196)"><text x="-115.68" y="63.75" style="fill: rgba(255,255,255,1); font-family: serif; font-size: 12px; " text-rendering="auto" clip-path="url(#clip-1)">10.58</text></g><g style="fill: rgba(98,95,75,1);fill-opacity: 1.0; stroke: none" transform="matrix(1,0,0,1,309.5,196)" clip-path="url(#clip-1)"><path d="M -3.65 105.11 L 24.49 102.66 L 29.27 111.33 L 0.8 113.85 M -3.65 105.11"/></g><g style="fill: rgba(68,65,51,1);fill-opacity: 1.0; stroke: none" transform="matrix(1,0,0,1,309.5,196)" clip-path="url(#clip-1)"><path d="M 31.48 102.05 L 31.88 77.25 L 36.78 85.65 L 36.35 110.7 M 31.48 102.05"/></g><g style="fill: rgba(129,125,98,1);fill-opacity: 1.0; stroke: none" transform="matrix(1,0,0,1,309.5,196)" clip-path="url(#clip-1)"><path d="M 72.37 77.05 L 100.51 74.68 L 99.48 105.12 L 71.56 107.59 M 72.37 77.05"/></g><g style="fill: rgba(108,115,103,1);fill-opacity: 1.0; stroke: none" transform="matrix(1,0,0,1,309.5,196)" clip-path="url(#clip-1)"><path d="M -157.53 109.44 L -159.98 100.8 L -160.84 75.78 L -158.39 84.16 M -157.53 109.44"/></g><g style="fill: rgba(68,65,51,1);fill-opacity: 1.0; stroke: none" transform="matrix(1,0,0,1,309.5,196)" clip-path="url(#clip-1)"><path d="M 29.27 111.33 L 24.49 102.66 L 24.84 77.46 L 29.66 85.87 M 29.27 111.33"/></g><g style="fill: rgba(156,167,150,1);fill-opacity: 1.0; stroke: none" transform="matrix(1,0,0,1,309.5,196)" clip-path="url(#clip-1)"><path d="M -153.69 73.27 L -124.93 70.94 L -122.03 79.22 L -151.15 81.62 M -153.69 73.27"/></g><g style="fill: rgba(129,125,98,1);fill-opacity: 1.0; stroke: none" transform="matrix(1,0,0,1,309.5,196)" clip-path="url(#clip-1)"><path d="M -10.72 105.72 L -39.12 108.2 L -39.19 85.38 L -10.61 82.98 M -10.72 105.72"/></g><g style="fill: rgba(98,95,75,1);fill-opacity: 1.0; stroke: none" transform="matrix(1,0,0,1,309.5,196)" clip-path="url(#clip-1)"><path d="M 31.88 77.25 L 59.92 74.9 L 65.16 83.24 L 36.78 85.65 M 31.88 77.25"/></g><g style="fill: rgba(0,0,0,0);fill-opacity: 1.0; stroke: none" transform="matrix(1,0,0,1,309.5,196)" clip-path="url(#clip-1)"><path d="M -141.97 64.65 L -134.58 64.05 L -134.48 67.46 L -141.87 68.05 M -141.97 64.65"/></g><rect x="-148.73" y="60.05" width="21" height="12" style="fill: rgba(100,100,100,0.392157);fill-opacity: 1.0" transform="matrix(1,0,0,1,309.5,196)" clip-path="url(#clip-1)"/><g transform="matrix(1,0,0,1,309.5,196)"><text x="-148.73" y="69.05" style="fill: rgba(255,255,255,1); font-family: serif; font-size: 12px; " text-rendering="auto" clip-path="url(#clip-1)">9.72</text></g><g style="fill: rgba(205,219,197,1);fill-opacity: 1.0; stroke: none" transform="matrix(1,0,0,1,309.5,196)" clip-path="url(#clip-1)"><path d="M -151.15 81.62 L -122.03 79.22 L -121.37 106.33 L -150.27 108.81 M -151.15 81.62"/></g><rect x="38.15" y="64.06" width="21" height="12" style="fill: rgba(100,100,100,0.392157);fill-opacity: 1.0" transform="matrix(1,0,0,1,309.5,196)" clip-path="url(#clip-1)"/><g transform="matrix(1,0,0,1,309.5,196)"><text x="38.15" y="73.06" style="fill: rgba(255,255,255,1); font-family: serif; font-size: 12px; " text-rendering="auto" clip-path="url(#clip-1)">8.96</text></g><g style="fill: rgba(0,0,0,0);fill-opacity: 1.0; stroke: none" transform="matrix(1,0,0,1,309.5,196)" clip-path="url(#clip-1)"><path d="M 45.08 68.65 L 52.29 68.06 L 52.22 71.46 L 45.02 72.05 M 45.08 68.65"/></g><g style="fill: rgba(108,115,103,1);fill-opacity: 1.0; stroke: none" transform="matrix(1,0,0,1,309.5,196)" clip-path="url(#clip-1)"><path d="M -188.81 103.24 L -189.87 78.14 L -187.78 86.59 L -186.72 111.94 M -188.81 103.24"/></g><g style="fill: rgba(129,125,98,1);fill-opacity: 1.0; stroke: none" transform="matrix(1,0,0,1,309.5,196)" clip-path="url(#clip-1)"><path d="M 36.78 85.65 L 65.16 83.24 L 64.55 108.21 L 36.35 110.7 M 36.78 85.65"/></g><g style="fill: rgba(98,95,75,1);fill-opacity: 1.0; stroke: none" transform="matrix(1,0,0,1,309.5,196)" clip-path="url(#clip-1)"><path d="M -39.12 108.2 L -10.72 105.72 L -6.35 114.48 L -35.11 117.02 M -39.12 108.2"/></g><g style="fill: rgba(68,65,51,1);fill-opacity: 1.0; stroke: none" transform="matrix(1,0,0,1,309.5,196)" clip-path="url(#clip-1)"><path d="M -3.65 105.11 L -3.48 79.83 L 1 88.3 L 0.8 113.85 M -3.65 105.11"/></g><g style="fill: rgba(156,167,150,1);fill-opacity: 1.0; stroke: none" transform="matrix(1,0,0,1,309.5,196)" clip-path="url(#clip-1)"><path d="M -189.87 78.14 L -160.84 75.78 L -158.39 84.16 L -187.78 86.59 M -189.87 78.14"/></g><g style="fill: rgba(68,65,51,1);fill-opacity: 1.0; stroke: none" transform="matrix(1,0,0,1,309.5,196)" clip-path="url(#clip-1)"><path d="M -6.35 114.48 L -10.72 105.72 L -10.61 82.98 L -6.22 91.49 M -6.35 114.48"/></g><g style="fill: rgba(98,95,75,1);fill-opacity: 1.0; stroke: none" transform="matrix(1,0,0,1,309.5,196)" clip-path="url(#clip-1)"><path d="M -3.48 79.83 L 24.84 77.46 L 29.66 85.87 L 1 88.3 M -3.48 79.83"/></g><g style="fill: rgba(129,125,98,1);fill-opacity: 1.0; stroke: none" transform="matrix(1,0,0,1,309.5,196)" clip-path="url(#clip-1)"><path d="M -46.26 108.82 L -74.95 111.32 L -75.33 80.68 L -46.41 78.29 M -46.26 108.82"/></g><g style="fill: rgba(0,0,0,0);fill-opacity: 1.0; stroke: none" transform="matrix(1,0,0,1,309.5,196)" clip-path="url(#clip-1)"><path d="M -178.39 69.52 L -170.93 68.92 L -170.8 72.33 L -178.25 72.93 M -178.39 69.52"/></g><rect x="-185.1" y="64.93" width="21" height="12" style="fill: rgba(100,100,100,0.392157);fill-opacity: 1.0" transform="matrix(1,0,0,1,309.5,196)" clip-path="url(#clip-1)"/><g transform="matrix(1,0,0,1,309.5,196)"><text x="-185.1" y="73.93" style="fill: rgba(255,255,255,1); font-family: serif; font-size: 12px; " text-rendering="auto" clip-path="url(#clip-1)">9.03</text></g><g style="fill: rgba(205,219,197,1);fill-opacity: 1.0; stroke: none" transform="matrix(1,0,0,1,309.5,196)" clip-path="url(#clip-1)"><path d="M -187.78 86.59 L -158.39 84.16 L -157.53 109.44 L -186.72 111.94 M -187.78 86.59"/></g><g style="fill: rgba(129,125,98,1);fill-opacity: 1.0; stroke: none" transform="matrix(1,0,0,1,309.5,196)" clip-path="url(#clip-1)"><path d="M 1 88.3 L 29.66 85.87 L 29.27 111.33 L 0.8 113.85 M 1 88.3"/></g><g style="fill: rgba(98,95,75,1);fill-opacity: 1.0; stroke: none" transform="matrix(1,0,0,1,309.5,196)" clip-path="url(#clip-1)"><path d="M -74.95 111.32 L -46.26 108.82 L -42.33 117.66 L -71.37 120.23 M -74.95 111.32"/></g><g style="fill: rgba(68,65,51,1);fill-opacity: 1.0; stroke: none" transform="matrix(1,0,0,1,309.5,196)" clip-path="url(#clip-1)"><path d="M -39.12 108.2 L -39.19 85.38 L -35.15 93.96 L -35.11 117.02 M -39.12 108.2"/></g><g style="fill: rgba(98,95,75,1);fill-opacity: 1.0; stroke: none" transform="matrix(1,0,0,1,309.5,196)" clip-path="url(#clip-1)"><path d="M -39.19 85.38 L -10.61 82.98 L -6.22 91.49 L -35.15 93.96 M -39.19 85.38"/></g><g style="fill: rgba(129,125,98,1);fill-opacity: 1.0; stroke: none" transform="matrix(1,0,0,1,309.5,196)" clip-path="url(#clip-1)"><path d="M -82.16 111.95 L -111.13 114.48 L -111.69 89.04 L -82.52 86.6 M -82.16 111.95"/></g><g style="fill: rgba(68,65,51,1);fill-opacity: 1.0; stroke: none" transform="matrix(1,0,0,1,309.5,196)" clip-path="url(#clip-1)"><path d="M -42.33 117.66 L -46.26 108.82 L -46.41 78.29 L -42.45 86.8 M -42.33 117.66"/></g><g style="fill: rgba(129,125,98,1);fill-opacity: 1.0; stroke: none" transform="matrix(1,0,0,1,309.5,196)" clip-path="url(#clip-1)"><path d="M -35.15 93.96 L -6.22 91.49 L -6.35 114.48 L -35.11 117.02 M -35.15 93.96"/></g><g style="fill: rgba(98,95,75,1);fill-opacity: 1.0; stroke: none" transform="matrix(1,0,0,1,309.5,196)" clip-path="url(#clip-1)"><path d="M -111.13 114.48 L -82.16 111.95 L -78.67 120.87 L -108 123.46 M -111.13 114.48"/></g><g style="fill: rgba(68,65,51,1);fill-opacity: 1.0; stroke: none" transform="matrix(1,0,0,1,309.5,196)" clip-path="url(#clip-1)"><path d="M -74.95 111.32 L -75.33 80.68 L -71.73 89.26 L -71.37 120.23 M -74.95 111.32"/></g><g style="fill: rgba(68,65,51,1);fill-opacity: 1.0; stroke: none" transform="matrix(1,0,0,1,309.5,196)" clip-path="url(#clip-1)"><path d="M -78.67 120.87 L -82.16 111.95 L -82.52 86.6 L -79.01 95.25 M -78.67 120.87"/></g><g style="fill: rgba(129,125,98,1);fill-opacity: 1.0; stroke: none" transform="matrix(1,0,0,1,309.5,196)" clip-path="url(#clip-1)"><path d="M -118.41 115.11 L -147.67 117.66 L -148.45 92.82 L -119 90.35 M -118.41 115.11"/></g><g style="fill: rgba(98,95,75,1);fill-opacity: 1.0; stroke: none" transform="matrix(1,0,0,1,309.5,196)" clip-path="url(#clip-1)"><path d="M -75.33 80.68 L -46.41 78.29 L -42.45 86.8 L -71.73 89.26 M -75.33 80.68"/></g><g style="fill: rgba(98,95,75,1);fill-opacity: 1.0; stroke: none" transform="matrix(1,0,0,1,309.5,196)" clip-path="url(#clip-1)"><path d="M -147.67 117.66 L -118.41 115.11 L -115.37 124.12 L -145 126.74 M -147.67 117.66"/></g><g style="fill: rgba(68,65,51,1);fill-opacity: 1.0; stroke: none" transform="matrix(1,0,0,1,309.5,196)" clip-path="url(#clip-1)"><path d="M -111.13 114.48 L -111.69 89.04 L -108.55 97.76 L -108 123.46 M -111.13 114.48"/></g><g style="fill: rgba(129,125,98,1);fill-opacity: 1.0; stroke: none" transform="matrix(1,0,0,1,309.5,196)" clip-path="url(#clip-1)"><path d="M -71.73 89.26 L -42.45 86.8 L -42.33 117.66 L -71.37 120.23 M -71.73 89.26"/></g><g style="fill: rgba(68,65,51,1);fill-opacity: 1.0; stroke: none" transform="matrix(1,0,0,1,309.5,196)" clip-path="url(#clip-1)"><path d="M -115.37 124.12 L -118.41 115.11 L -119 90.35 L -115.95 99.09 M -115.37 124.12"/></g><g style="fill: rgba(129,125,98,1);fill-opacity: 1.0; stroke: none" transform="matrix(1,0,0,1,309.5,196)" clip-path="url(#clip-1)"><path d="M -155.02 118.3 L -184.57 120.88 L -185.54 97.67 L -155.8 95.18 M -155.02 118.3"/></g><g style="fill: rgba(98,95,75,1);fill-opacity: 1.0; stroke: none" transform="matrix(1,0,0,1,309.5,196)" clip-path="url(#clip-1)"><path d="M -111.69 89.04 L -82.52 86.6 L -79.01 95.25 L -108.55 97.76 M -111.69 89.04"/></g><g style="fill: rgba(129,125,98,1);fill-opacity: 1.0; stroke: none" transform="matrix(1,0,0,1,309.5,196)" clip-path="url(#clip-1)"><path d="M -108.55 97.76 L -79.01 95.25 L -78.67 120.87 L -108 123.46 M -108.55 97.76"/></g><g style="fill: rgba(98,95,75,1);fill-opacity: 1.0; stroke: none" transform="matrix(1,0,0,1,309.5,196)" clip-path="url(#clip-1)"><path d="M -184.57 120.88 L -155.02 118.3 L -152.45 127.39 L -182.37 130.04 M -184.57 120.88"/></g><g style="fill: rgba(68,65,51,1);fill-opacity: 1.0; stroke: none" transform="matrix(1,0,0,1,309.5,196)" clip-path="url(#clip-1)"><path d="M -147.67 117.66 L -148.45 92.82 L -145.78 101.63 L -145 126.74 M -147.67 117.66"/></g><g style="fill: rgba(68,65,51,1);fill-opacity: 1.0; stroke: none" transform="matrix(1,0,0,1,309.5,196)" clip-path="url(#clip-1)"><path d="M -152.45 127.39 L -155.02 118.3 L -155.8 95.18 L -153.22 104.02 M -152.45 127.39"/></g><g style="fill: rgba(98,95,75,1);fill-opacity: 1.0; stroke: none" transform="matrix(1,0,0,1,309.5,196)" clip-path="url(#clip-1)"><path d="M -148.45 92.82 L -119 90.35 L -115.95 99.09 L -145.78 101.63 M -148.45 92.82"/></g><g style="fill: rgba(129,125,98,1);fill-opacity: 1.0; stroke: none" transform="matrix(1,0,0,1,309.5,196)" clip-path="url(#clip-1)"><path d="M -145.78 101.63 L -115.95 99.09 L -115.37 124.12 L -145 126.74 M -145.78 101.63"/></g><g style="fill: rgba(68,65,51,1);fill-opacity: 1.0; stroke: none" transform="matrix(1,0,0,1,309.5,196)" clip-path="url(#clip-1)"><path d="M -184.57 120.88 L -185.54 97.67 L -183.34 106.59 L -182.37 130.04 M -184.57 120.88"/></g><g style="fill: rgba(98,95,75,1);fill-opacity: 1.0; stroke: none" transform="matrix(1,0,0,1,309.5,196)" clip-path="url(#clip-1)"><path d="M -185.54 97.67 L -155.8 95.18 L -153.22 104.02 L -183.34 106.59 M -185.54 97.67"/></g><g style="fill: rgba(129,125,98,1);fill-opacity: 1.0; stroke: none" transform="matrix(1,0,0,1,309.5,196)" clip-path="url(#clip-1)"><path d="M -183.34 106.59 L -153.22 104.02 L -152.45 127.39 L -182.37 130.04 M -183.34 106.59"/></g><line x1="-207.38" y1="141.35" x2="233.02" y2="101.88" style="stroke-width: 0.0;stroke: rgba(128,128,128,1);stroke-opacity: 1.0;" transform="matrix(1,0,0,1,309.5,196)" clip-path="url(#clip-1)"/><line x1="-165.07" y1="137.56" x2="-164.8" y2="140.54" style="stroke-width: 0.5;stroke: rgba(128,128,128,1);stroke-opacity: 1.0;" transform="matrix(1,0,0,1,309.5,196)" clip-path="url(#clip-1)"/><line x1="-127.4" y1="134.18" x2="-127.13" y2="137.17" style="stroke-width: 0.5;stroke: rgba(128,128,128,1);stroke-opacity: 1.0;" transform="matrix(1,0,0,1,309.5,196)" clip-path="url(#clip-1)"/><line x1="-90.11" y1="130.84" x2="-89.84" y2="133.82" style="stroke-width: 0.5;stroke: rgba(128,128,128,1);stroke-opacity: 1.0;" transform="matrix(1,0,0,1,309.5,196)" clip-path="url(#clip-1)"/><line x1="-53.19" y1="127.53" x2="-52.92" y2="130.52" style="stroke-width: 0.5;stroke: rgba(128,128,128,1);stroke-opacity: 1.0;" transform="matrix(1,0,0,1,309.5,196)" clip-path="url(#clip-1)"/><line x1="-16.65" y1="124.25" x2="-16.38" y2="127.24" style="stroke-width: 0.5;stroke: rgba(128,128,128,1);stroke-opacity: 1.0;" transform="matrix(1,0,0,1,309.5,196)" clip-path="url(#clip-1)"/><line x1="19.53" y1="121.01" x2="19.8" y2="124" style="stroke-width: 0.5;stroke: rgba(128,128,128,1);stroke-opacity: 1.0;" transform="matrix(1,0,0,1,309.5,196)" clip-path="url(#clip-1)"/><line x1="55.35" y1="117.8" x2="55.62" y2="120.79" style="stroke-width: 0.5;stroke: rgba(128,128,128,1);stroke-opacity: 1.0;" transform="matrix(1,0,0,1,309.5,196)" clip-path="url(#clip-1)"/><line x1="90.82" y1="114.62" x2="91.09" y2="117.61" style="stroke-width: 0.5;stroke: rgba(128,128,128,1);stroke-opacity: 1.0;" transform="matrix(1,0,0,1,309.5,196)" clip-path="url(#clip-1)"/><line x1="125.94" y1="111.47" x2="126.21" y2="114.46" style="stroke-width: 0.5;stroke: rgba(128,128,128,1);stroke-opacity: 1.0;" transform="matrix(1,0,0,1,309.5,196)" clip-path="url(#clip-1)"/><line x1="160.72" y1="108.36" x2="160.98" y2="111.34" style="stroke-width: 0.5;stroke: rgba(128,128,128,1);stroke-opacity: 1.0;" transform="matrix(1,0,0,1,309.5,196)" clip-path="url(#clip-1)"/><line x1="195.15" y1="105.27" x2="195.42" y2="108.26" style="stroke-width: 0.5;stroke: rgba(128,128,128,1);stroke-opacity: 1.0;" transform="matrix(1,0,0,1,309.5,196)" clip-path="url(#clip-1)"/><g transform="matrix(0.996008,-0.089268,0.089268,0.996008,295.268656,181.988264)"><text x="-180.76" y="155.77" style="fill: rgba(0,0,0,1); font-family: Palatino; font-size: 12px; " text-rendering="auto" clip-path="url(#clip-2)">Q2/11</text></g><g transform="matrix(0.996008,-0.089268,0.089268,0.996008,294.55142,185.495368)"><text x="-141.91" y="165.54" style="fill: rgba(0,0,0,1); font-family: Palatino; font-size: 12px; " text-rendering="auto" clip-path="url(#clip-3)">Q3/11</text></g><g transform="matrix(0.996008,-0.089268,0.089268,0.996008,296.167689,188.65317)"><text x="-105.8" y="149.05" style="fill: rgba(0,0,0,1); font-family: Palatino; font-size: 12px; " text-rendering="auto" clip-path="url(#clip-4)">Q4/11</text></g><g transform="matrix(0.996008,-0.089268,0.089268,0.996008,295.441372,192.092958)"><text x="-67.71" y="158.89" style="fill: rgba(0,0,0,1); font-family: Palatino; font-size: 12px; " text-rendering="auto" clip-path="url(#clip-5)">Q1/12</text></g><g transform="matrix(0.996008,-0.089268,0.089268,0.996008,297.048698,195.184461)"><text x="-32.34" y="142.47" style="fill: rgba(0,0,0,1); font-family: Palatino; font-size: 12px; " text-rendering="auto" clip-path="url(#clip-6)">Q2/12</text></g><g transform="matrix(0.996008,-0.089268,0.089268,0.996008,296.313573,198.558942)"><text x="5.02" y="152.37" style="fill: rgba(0,0,0,1); font-family: Palatino; font-size: 12px; " text-rendering="auto" clip-path="url(#clip-7)">Q3/12</text></g><g transform="matrix(0.996008,-0.089268,0.089268,0.996008,297.91222,201.586113)"><text x="39.66" y="136.01" style="fill: rgba(0,0,0,1); font-family: Palatino; font-size: 12px; " text-rendering="auto" clip-path="url(#clip-8)">Q4/12</text></g><g transform="matrix(0.996008,-0.089268,0.089268,0.996008,297.168547,204.897218)"><text x="76.3" y="145.98" style="fill: rgba(0,0,0,1); font-family: Palatino; font-size: 12px; " text-rendering="auto" clip-path="url(#clip-9)">Q1/13</text></g><g transform="matrix(0.996008,-0.089268,0.089268,0.996008,298.758771,207.86195)"><text x="110.24" y="129.69" style="fill: rgba(0,0,0,1); font-family: Palatino; font-size: 12px; " text-rendering="auto" clip-path="url(#clip-10)">Q2/13</text></g><g transform="matrix(0.996008,-0.089268,0.089268,0.996008,298.006799,211.111533)"><text x="146.2" y="139.72" style="fill: rgba(0,0,0,1); font-family: Palatino; font-size: 12px; " text-rendering="auto" clip-path="url(#clip-11)">Q3/13</text></g><g transform="matrix(0.996008,-0.089268,0.089268,0.996008,299.588846,214.015645)"><text x="179.46" y="123.48" style="fill: rgba(0,0,0,1); font-family: Palatino; font-size: 12px; " text-rendering="auto" clip-path="url(#clip-12)">Q4/13</text></g><g transform="matrix(0.996008,-0.089268,0.089268,0.996008,294.763013,198.16058)"><text x="-4.71" y="169.51" style="fill: rgba(0,0,0,1); font-family: Palatino; font-size: 12px; font-weight: bold; " text-rendering="auto" clip-path="url(#clip-13)">Quarter</text></g><line x1="233.02" y1="101.88" x2="245.01" y2="-71.66" style="stroke-width: 0.0;stroke: rgba(128,128,128,1);stroke-opacity: 1.0;" transform="matrix(1,0,0,1,309.5,196)" clip-path="url(#clip-1)"/><line x1="233.02" y1="101.88" x2="236.02" y2="102.08" style="stroke-width: 0.5;stroke: rgba(128,128,128,1);stroke-opacity: 1.0;" transform="matrix(1,0,0,1,309.5,196)" clip-path="url(#clip-1)"/><line x1="234.93" y1="74.24" x2="237.93" y2="74.44" style="stroke-width: 0.5;stroke: rgba(128,128,128,1);stroke-opacity: 1.0;" transform="matrix(1,0,0,1,309.5,196)" clip-path="url(#clip-1)"/><line x1="236.87" y1="46.19" x2="239.86" y2="46.4" style="stroke-width: 0.5;stroke: rgba(128,128,128,1);stroke-opacity: 1.0;" transform="matrix(1,0,0,1,309.5,196)" clip-path="url(#clip-1)"/><line x1="238.83" y1="17.73" x2="241.83" y2="17.94" style="stroke-width: 0.5;stroke: rgba(128,128,128,1);stroke-opacity: 1.0;" transform="matrix(1,0,0,1,309.5,196)" clip-path="url(#clip-1)"/><line x1="240.83" y1="-11.15" x2="243.82" y2="-10.95" style="stroke-width: 0.5;stroke: rgba(128,128,128,1);stroke-opacity: 1.0;" transform="matrix(1,0,0,1,309.5,196)" clip-path="url(#clip-1)"/><line x1="242.85" y1="-40.47" x2="245.85" y2="-40.26" style="stroke-width: 0.5;stroke: rgba(128,128,128,1);stroke-opacity: 1.0;" transform="matrix(1,0,0,1,309.5,196)" clip-path="url(#clip-1)"/><line x1="244.91" y1="-70.24" x2="247.9" y2="-70.03" style="stroke-width: 0.5;stroke: rgba(128,128,128,1);stroke-opacity: 1.0;" transform="matrix(1,0,0,1,309.5,196)" clip-path="url(#clip-1)"/><g transform="matrix(0.997624,0.06889,-0.06889,0.997624,317.128739,179.640512)"><text x="241.01" y="106.1" style="fill: rgba(0,0,0,1); font-family: Palatino; font-size: 12px; " text-rendering="auto" clip-path="url(#clip-14)">0</text></g><g transform="matrix(0.997624,0.06889,-0.06889,0.997624,315.229293,179.443375)"><text x="242.91" y="78.46" style="fill: rgba(0,0,0,1); font-family: Palatino; font-size: 12px; " text-rendering="auto" clip-path="url(#clip-15)">10</text></g><g transform="matrix(0.997624,0.06889,-0.06889,0.997624,313.301906,179.243338)"><text x="244.85" y="50.42" style="fill: rgba(0,0,0,1); font-family: Palatino; font-size: 12px; " text-rendering="auto" clip-path="url(#clip-16)">20</text></g><g transform="matrix(0.997624,0.06889,-0.06889,0.997624,311.345958,179.040336)"><text x="246.82" y="21.96" style="fill: rgba(0,0,0,1); font-family: Palatino; font-size: 12px; " text-rendering="auto" clip-path="url(#clip-17)">30</text></g><g transform="matrix(0.997624,0.06889,-0.06889,0.997624,309.360808,178.834304)"><text x="248.81" y="-6.93" style="fill: rgba(0,0,0,1); font-family: Palatino; font-size: 12px; " text-rendering="auto" clip-path="url(#clip-18)">40</text></g><g transform="matrix(0.997624,0.06889,-0.06889,0.997624,307.345798,178.625171)"><text x="250.84" y="-36.25" style="fill: rgba(0,0,0,1); font-family: Palatino; font-size: 12px; " text-rendering="auto" clip-path="url(#clip-19)">50</text></g><g transform="matrix(0.997624,0.06889,-0.06889,0.997624,305.30025,178.41287)"><text x="252.89" y="-66.01" style="fill: rgba(0,0,0,1); font-family: Palatino; font-size: 12px; " text-rendering="auto" clip-path="url(#clip-20)">60</text></g><g transform="matrix(0.06889,-0.997624,0.997624,0.06889,542.78181,480.298939)"><text x="219.44" y="20.85" style="fill: rgba(0,0,0,1); font-family: Palatino; font-size: 12px; font-weight: bold; " text-rendering="auto" clip-path="url(#clip-21)">$billion Revenues</text></g><line x1="245.01" y1="-71.66" x2="182.85" y2="-124.63" style="stroke-width: 0.0;stroke: rgba(128,128,128,1);stroke-opacity: 1.0;" transform="matrix(1,0,0,1,309.5,196)" clip-path="url(#clip-1)"/><line x1="233.94" y1="-81.09" x2="235.89" y2="-83.37" style="stroke-width: 0.5;stroke: rgba(128,128,128,1);stroke-opacity: 1.0;" transform="matrix(1,0,0,1,309.5,196)" clip-path="url(#clip-1)"/><line x1="219.28" y1="-93.58" x2="221.23" y2="-95.86" style="stroke-width: 0.5;stroke: rgba(128,128,128,1);stroke-opacity: 1.0;" transform="matrix(1,0,0,1,309.5,196)" clip-path="url(#clip-1)"/><line x1="205.34" y1="-105.46" x2="207.29" y2="-107.75" style="stroke-width: 0.5;stroke: rgba(128,128,128,1);stroke-opacity: 1.0;" transform="matrix(1,0,0,1,309.5,196)" clip-path="url(#clip-1)"/><line x1="192.06" y1="-116.78" x2="194" y2="-119.07" style="stroke-width: 0.5;stroke: rgba(128,128,128,1);stroke-opacity: 1.0;" transform="matrix(1,0,0,1,309.5,196)" clip-path="url(#clip-1)"/><g transform="matrix(0.648644,-0.761092,0.761092,0.648644,459.868567,347.373439)"><text x="239.13" y="-83.5" style="fill: rgba(0,0,0,1); font-family: Palatino; font-size: 12px; " text-rendering="auto" clip-path="url(#clip-22)">Oracle</text></g><g transform="matrix(0.648644,-0.761092,0.761092,0.648644,464.226696,331.8264)"><text x="224.47" y="-96" style="fill: rgba(0,0,0,1); font-family: Palatino; font-size: 12px; " text-rendering="auto" clip-path="url(#clip-23)">Google</text></g><g transform="matrix(0.648644,-0.761092,0.761092,0.648644,468.372453,317.036921)"><text x="210.53" y="-107.88" style="fill: rgba(0,0,0,1); font-family: Palatino; font-size: 12px; " text-rendering="auto" clip-path="url(#clip-24)">Microsoft</text></g><g transform="matrix(0.648644,-0.761092,0.761092,0.648644,472.321006,302.950957)"><text x="197.25" y="-119.2" style="fill: rgba(0,0,0,1); font-family: Palatino; font-size: 12px; " text-rendering="auto" clip-path="url(#clip-25)">Apple</text></g><rect x="355" y="364" width="58" height="22" style="fill: rgba(0,0,0,0);fill-opacity: 1.0" transform="matrix(1,0,0,1,0,0)" clip-path="url(#clip-26)"/><rect x="357" y="366" width="16" height="18" style="fill: rgba(255,255,255,0.392157);fill-opacity: 1.0" transform="matrix(1,0,0,1,0,0)" clip-path="url(#clip-26)"/><rect x="-6" y="-4" width="12" height="8" style="fill: rgba(137,132,104,1);fill-opacity: 1.0" transform="matrix(1,0,0,1,365,375)" clip-path="url(#clip-27)"/><rect x="373" y="366" width="38" height="18" style="fill: rgba(255,255,255,0.392157);fill-opacity: 1.0" transform="matrix(1,0,0,1,0,0)" clip-path="url(#clip-26)"/><g transform="matrix(1,0,0,1,0,0)"><text x="375" y="378.67" style="fill: rgba(0,0,0,1); font-family: Palatino; font-size: 12px; " text-rendering="auto" clip-path="url(#clip-26)">Oracle</text></g><rect x="415" y="364" width="63" height="22" style="fill: rgba(0,0,0,0);fill-opacity: 1.0" transform="matrix(1,0,0,1,0,0)" clip-path="url(#clip-26)"/><rect x="417" y="366" width="16" height="18" style="fill: rgba(255,255,255,0.392157);fill-opacity: 1.0" transform="matrix(1,0,0,1,0,0)" clip-path="url(#clip-26)"/><rect x="-6" y="-4" width="12" height="8" style="fill: rgba(217,232,208,1);fill-opacity: 1.0" transform="matrix(1,0,0,1,425,375)" clip-path="url(#clip-28)"/><rect x="433" y="366" width="43" height="18" style="fill: rgba(255,255,255,0.392157);fill-opacity: 1.0" transform="matrix(1,0,0,1,0,0)" clip-path="url(#clip-26)"/><g transform="matrix(1,0,0,1,0,0)"><text x="435" y="378.67" style="fill: rgba(0,0,0,1); font-family: Palatino; font-size: 12px; " text-rendering="auto" clip-path="url(#clip-26)">Google</text></g><rect x="480" y="364" width="75" height="22" style="fill: rgba(0,0,0,0);fill-opacity: 1.0" transform="matrix(1,0,0,1,0,0)" clip-path="url(#clip-26)"/><rect x="482" y="366" width="16" height="18" style="fill: rgba(255,255,255,0.392157);fill-opacity: 1.0" transform="matrix(1,0,0,1,0,0)" clip-path="url(#clip-26)"/><rect x="-6" y="-4" width="12" height="8" style="fill: rgba(53,48,40,1);fill-opacity: 1.0" transform="matrix(1,0,0,1,490,375)" clip-path="url(#clip-29)"/><rect x="498" y="366" width="55" height="18" style="fill: rgba(255,255,255,0.392157);fill-opacity: 1.0" transform="matrix(1,0,0,1,0,0)" clip-path="url(#clip-26)"/><g transform="matrix(1,0,0,1,0,0)"><text x="500" y="378.67" style="fill: rgba(0,0,0,1); font-family: Palatino; font-size: 12px; " text-rendering="auto" clip-path="url(#clip-26)">Microsoft</text></g><rect x="557" y="364" width="56" height="22" style="fill: rgba(0,0,0,0);fill-opacity: 1.0" transform="matrix(1,0,0,1,0,0)" clip-path="url(#clip-26)"/><rect x="559" y="366" width="16" height="18" style="fill: rgba(255,255,255,0.392157);fill-opacity: 1.0" transform="matrix(1,0,0,1,0,0)" clip-path="url(#clip-26)"/><rect x="-6" y="-4" width="12" height="8" style="fill: rgba(240,225,172,1);fill-opacity: 1.0" transform="matrix(1,0,0,1,567,375)" clip-path="url(#clip-30)"/><rect x="575" y="366" width="36" height="18" style="fill: rgba(255,255,255,0.392157);fill-opacity: 1.0" transform="matrix(1,0,0,1,0,0)" clip-path="url(#clip-26)"/><g transform="matrix(1,0,0,1,0,0)"><text x="577" y="378.67" style="fill: rgba(0,0,0,1); font-family: Palatino; font-size: 12px; " text-rendering="auto" clip-path="url(#clip-26)">Apple</text></g><rect x="4" y="4" width="290" height="68" style="fill: rgba(0,0,0,0);fill-opacity: 1.0" transform="matrix(1,0,0,1,0,0)" clip-path="url(#clip-0)"/><rect x="6" y="6" width="286" height="40" style="fill: rgba(255,255,255,0.392157);fill-opacity: 1.0" transform="matrix(1,0,0,1,0,0)" clip-path="url(#clip-0)"/><g transform="matrix(1,0,0,1,0,0)"><text x="8" y="35.12" style="fill: rgba(0,0,0,1); font-family: Palatino; font-size: 32px; " text-rendering="auto" clip-path="url(#clip-0)">Quarterly Revenues</text></g><rect x="6" y="46" width="237" height="24" style="fill: rgba(255,255,255,0.392157);fill-opacity: 1.0" transform="matrix(1,0,0,1,0,0)" clip-path="url(#clip-0)"/><g transform="matrix(1,0,0,1,0,0)"><text x="8" y="63.01" style="fill: rgba(0,0,0,1); font-family: Palatino; font-size: 18px; " text-rendering="auto" clip-path="url(#clip-0)">For some large IT companies</text></g></svg>
