<!DOCTYPE svg PUBLIC "-//W3C//DTD SVG 1.1//EN" "http://www.w3.org/Graphics/SVG/1.1/DTD/svg11.dtd">
<svg xmlns="http://www.w3.org/2000/svg" xmlns:xlink="http://www.w3.org/1999/xlink" xmlns:jfreesvg="http://www.jfree.org/jfreesvg/svg" width="600" height="400">
<defs><clipPath id="clip-0"><path d="M 0 0 L 600 0 L 600 400 L 0 400 L 0 0 M 0 0"/></clipPath>
<clipPath id="clip-1"><path d="M 207.8 169.2 L 207.8 769.2 L -192.2 769.2 L -192.2 169.2 L 207.8 169.2 M 207.8 169.2"/></clipPath>
<clipPath id="clip-2"><path d="M 60 48 L 60 329 L 588 329 L 588 48 M 60 48"/></clipPath>
</defs>
<rect x="0" y="0" width="600" height="400" style="fill: rgba(255,255,255,1);fill-opacity: 1.0" transform="matrix(1,0,0,1,0,0)" clip-path="url(#clip-0)"/><g transform="matrix(1,0,0,1,0,0)"><text x="97.5" y="15.81" style="fill: rgba(0,0,0,1); font-family: Palatino; font-size: 18px; font-weight: bold; " text-rendering="auto" clip-path="url(#clip-0)">International Coffee Organisation : Coffee Prices</text></g><rect x="1" y="356.2" width="598" height="42.8" style="fill: rgba(255,255,255,1);fill-opacity: 1.0" transform="matrix(1,0,0,1,0,0)" clip-path="url(#clip-0)"/><g style="stroke-width: 3.0;stroke: rgba(255,0,0,1);stroke-opacity: 1.0;; fill: none" transform="matrix(1,0,0,1,0,0)" clip-path="url(#clip-0)"><path d="M 4 366.9 L 18 366.9"/></g><g transform="matrix(1,0,0,1,0,0)"><text x="22" y="370.72" style="fill: rgba(64,64,64,1); font-family: Palatino; font-size: 14px; " text-rendering="auto" clip-path="url(#clip-0)">Indicator Price</text></g><g style="stroke-width: 3.0;stroke: rgba(24,123,58,1);stroke-opacity: 1.0;; fill: none" transform="matrix(1,0,0,1,0,0)" clip-path="url(#clip-0)"><path d="M 121 366.9 L 135 366.9"/></g><g transform="matrix(1,0,0,1,0,0)"><text x="139" y="370.72" style="fill: rgba(64,64,64,1); font-family: Palatino; font-size: 14px; " text-rendering="auto" clip-path="url(#clip-0)">Columbian Milds</text></g><g style="stroke-width: 3.0;stroke: rgba(149,201,136,1);stroke-opacity: 1.0;; fill: none" transform="matrix(1,0,0,1,0,0)" clip-path="url(#clip-0)"><path d="M 254 366.9 L 268 366.9"/></g><g transform="matrix(1,0,0,1,0,0)"><text x="272" y="370.72" style="fill: rgba(64,64,64,1); font-family: Palatino; font-size: 14px; " text-rendering="auto" clip-path="url(#clip-0)">Other Milds</text></g><g style="stroke-width: 3.0;stroke: rgba(1,62,29,1);stroke-opacity: 1.0;; fill: none" transform="matrix(1,0,0,1,0,0)" clip-path="url(#clip-0)"><path d="M 355 366.9 L 369 366.9"/></g><g transform="matrix(1,0,0,1,0,0)"><text x="373" y="370.72" style="fill: rgba(64,64,64,1); font-family: Palatino; font-size: 14px; " text-rendering="auto" clip-path="url(#clip-0)">Brazilian Naturals</text></g><g style="stroke-width: 3.0;stroke: rgba(81,176,86,1);stroke-opacity: 1.0;; fill: none" transform="matrix(1,0,0,1,0,0)" clip-path="url(#clip-0)"><path d="M 494 366.9 L 508 366.9"/></g><g transform="matrix(1,0,0,1,0,0)"><text x="512" y="370.72" style="fill: rgba(64,64,64,1); font-family: Palatino; font-size: 14px; " text-rendering="auto" clip-path="url(#clip-0)">Robustas</text></g><g style="stroke-width: 3.0;stroke: rgba(0,55,122,1);stroke-opacity: 1.0;; fill: none" transform="matrix(1,0,0,1,0,0)" clip-path="url(#clip-0)"><path d="M 4 388.3 L 18 388.3"/></g><g transform="matrix(1,0,0,1,0,0)"><text x="22" y="392.12" style="fill: rgba(64,64,64,1); font-family: Palatino; font-size: 14px; " text-rendering="auto" clip-path="url(#clip-0)">Futures (London)</text></g><g style="stroke-width: 3.0;stroke: rgba(0,92,165,1);stroke-opacity: 1.0;; fill: none" transform="matrix(1,0,0,1,0,0)" clip-path="url(#clip-0)"><path d="M 140 388.3 L 154 388.3"/></g><g transform="matrix(1,0,0,1,0,0)"><text x="158" y="392.12" style="fill: rgba(64,64,64,1); font-family: Palatino; font-size: 14px; " text-rendering="auto" clip-path="url(#clip-0)">Futures (New York)</text></g><g transform="matrix(1,0,0,1,0,0)"><text x="72" y="34.32" style="fill: rgba(0,0,0,1); font-family: Palatino; font-size: 14px; " text-rendering="auto" clip-path="url(#clip-0)">Source: http://www.ico.org/historical/2010-19/PDF/HIST-PRICES.pdf</text></g><rect x="60" y="48" width="528" height="281" style="fill: rgba(192,192,192,1);fill-opacity: 1.0" transform="matrix(1,0,0,1,0,0)" clip-path="url(#clip-0)"/><line x1="60" y1="333" x2="588" y2="333" style="stroke-width: 1.0;stroke: rgba(128,128,128,1);stroke-opacity: 1.0;" transform="matrix(1,0,0,1,0,0)" clip-path="url(#clip-0)"/><g transform="matrix(1,0,0,1,0,0)"><text x="75.82" y="346.87" style="fill: rgba(64,64,64,1); font-family: Palatino; font-size: 12px; " text-rendering="auto" clip-path="url(#clip-0)">Apr-2010</text></g><line x1="100.32" y1="335" x2="100.32" y2="333" style="stroke-width: 1.0;stroke: rgba(128,128,128,1);stroke-opacity: 1.0;" transform="matrix(1,0,0,1,0,0)" clip-path="url(#clip-0)"/><g transform="matrix(1,0,0,1,0,0)"><text x="129.5" y="346.87" style="fill: rgba(64,64,64,1); font-family: Palatino; font-size: 12px; " text-rendering="auto" clip-path="url(#clip-0)">Aug-2010</text></g><line x1="155" y1="335" x2="155" y2="333" style="stroke-width: 1.0;stroke: rgba(128,128,128,1);stroke-opacity: 1.0;" transform="matrix(1,0,0,1,0,0)" clip-path="url(#clip-0)"/><g transform="matrix(1,0,0,1,0,0)"><text x="185.69" y="346.87" style="fill: rgba(64,64,64,1); font-family: Palatino; font-size: 12px; " text-rendering="auto" clip-path="url(#clip-0)">Dec-2010</text></g><line x1="209.69" y1="335" x2="209.69" y2="333" style="stroke-width: 1.0;stroke: rgba(128,128,128,1);stroke-opacity: 1.0;" transform="matrix(1,0,0,1,0,0)" clip-path="url(#clip-0)"/><g transform="matrix(1,0,0,1,0,0)"><text x="239.4" y="346.87" style="fill: rgba(64,64,64,1); font-family: Palatino; font-size: 12px; " text-rendering="auto" clip-path="url(#clip-0)">Apr-2011</text></g><line x1="263.9" y1="335" x2="263.9" y2="333" style="stroke-width: 1.0;stroke: rgba(128,128,128,1);stroke-opacity: 1.0;" transform="matrix(1,0,0,1,0,0)" clip-path="url(#clip-0)"/><g transform="matrix(1,0,0,1,0,0)"><text x="293.08" y="346.87" style="fill: rgba(64,64,64,1); font-family: Palatino; font-size: 12px; " text-rendering="auto" clip-path="url(#clip-0)">Aug-2011</text></g><line x1="318.58" y1="335" x2="318.58" y2="333" style="stroke-width: 1.0;stroke: rgba(128,128,128,1);stroke-opacity: 1.0;" transform="matrix(1,0,0,1,0,0)" clip-path="url(#clip-0)"/><g transform="matrix(1,0,0,1,0,0)"><text x="349.28" y="346.87" style="fill: rgba(64,64,64,1); font-family: Palatino; font-size: 12px; " text-rendering="auto" clip-path="url(#clip-0)">Dec-2011</text></g><line x1="373.28" y1="335" x2="373.28" y2="333" style="stroke-width: 1.0;stroke: rgba(128,128,128,1);stroke-opacity: 1.0;" transform="matrix(1,0,0,1,0,0)" clip-path="url(#clip-0)"/><g transform="matrix(1,0,0,1,0,0)"><text x="403.44" y="346.87" style="fill: rgba(64,64,64,1); font-family: Palatino; font-size: 12px; " text-rendering="auto" clip-path="url(#clip-0)">Apr-2012</text></g><line x1="427.94" y1="335" x2="427.94" y2="333" style="stroke-width: 1.0;stroke: rgba(128,128,128,1);stroke-opacity: 1.0;" transform="matrix(1,0,0,1,0,0)" clip-path="url(#clip-0)"/><g transform="matrix(1,0,0,1,0,0)"><text x="457.11" y="346.87" style="fill: rgba(64,64,64,1); font-family: Palatino; font-size: 12px; " text-rendering="auto" clip-path="url(#clip-0)">Aug-2012</text></g><line x1="482.61" y1="335" x2="482.61" y2="333" style="stroke-width: 1.0;stroke: rgba(128,128,128,1);stroke-opacity: 1.0;" transform="matrix(1,0,0,1,0,0)" clip-path="url(#clip-0)"/><g transform="matrix(1,0,0,1,0,0)"><text x="513.31" y="346.87" style="fill: rgba(64,64,64,1); font-family: Palatino; font-size: 12px; " text-rendering="auto" clip-path="url(#clip-0)">Dec-2012</text></g><line x1="537.31" y1="335" x2="537.31" y2="333" style="stroke-width: 1.0;stroke: rgba(128,128,128,1);stroke-opacity: 1.0;" transform="matrix(1,0,0,1,0,0)" clip-path="url(#clip-0)"/><line x1="56" y1="48" x2="56" y2="329" style="stroke-width: 1.0;stroke: rgba(128,128,128,1);stroke-opacity: 1.0;" transform="matrix(1,0,0,1,0,0)" clip-path="url(#clip-0)"/><g transform="matrix(1,0,0,1,0,0)"><text x="38" y="328.18" style="fill: rgba(64,64,64,1); font-family: Palatino; font-size: 12px; " text-rendering="auto" clip-path="url(#clip-0)">50</text></g><line x1="54" y1="324.91" x2="56" y2="324.91" style="stroke-width: 1.0;stroke: rgba(128,128,128,1);stroke-opacity: 1.0;" transform="matrix(1,0,0,1,0,0)" clip-path="url(#clip-0)"/><g transform="matrix(1,0,0,1,0,0)"><text x="38" y="303.07" style="fill: rgba(64,64,64,1); font-family: Palatino; font-size: 12px; " text-rendering="auto" clip-path="url(#clip-0)">75</text></g><line x1="54" y1="299.79" x2="56" y2="299.79" style="stroke-width: 1.0;stroke: rgba(128,128,128,1);stroke-opacity: 1.0;" transform="matrix(1,0,0,1,0,0)" clip-path="url(#clip-0)"/><g transform="matrix(1,0,0,1,0,0)"><text x="32" y="277.95" style="fill: rgba(64,64,64,1); font-family: Palatino; font-size: 12px; " text-rendering="auto" clip-path="url(#clip-0)">100</text></g><line x1="54" y1="274.68" x2="56" y2="274.68" style="stroke-width: 1.0;stroke: rgba(128,128,128,1);stroke-opacity: 1.0;" transform="matrix(1,0,0,1,0,0)" clip-path="url(#clip-0)"/><g transform="matrix(1,0,0,1,0,0)"><text x="32" y="252.84" style="fill: rgba(64,64,64,1); font-family: Palatino; font-size: 12px; " text-rendering="auto" clip-path="url(#clip-0)">125</text></g><line x1="54" y1="249.57" x2="56" y2="249.57" style="stroke-width: 1.0;stroke: rgba(128,128,128,1);stroke-opacity: 1.0;" transform="matrix(1,0,0,1,0,0)" clip-path="url(#clip-0)"/><g transform="matrix(1,0,0,1,0,0)"><text x="32" y="227.73" style="fill: rgba(64,64,64,1); font-family: Palatino; font-size: 12px; " text-rendering="auto" clip-path="url(#clip-0)">150</text></g><line x1="54" y1="224.46" x2="56" y2="224.46" style="stroke-width: 1.0;stroke: rgba(128,128,128,1);stroke-opacity: 1.0;" transform="matrix(1,0,0,1,0,0)" clip-path="url(#clip-0)"/><g transform="matrix(1,0,0,1,0,0)"><text x="32" y="202.62" style="fill: rgba(64,64,64,1); font-family: Palatino; font-size: 12px; " text-rendering="auto" clip-path="url(#clip-0)">175</text></g><line x1="54" y1="199.34" x2="56" y2="199.34" style="stroke-width: 1.0;stroke: rgba(128,128,128,1);stroke-opacity: 1.0;" transform="matrix(1,0,0,1,0,0)" clip-path="url(#clip-0)"/><g transform="matrix(1,0,0,1,0,0)"><text x="32" y="177.5" style="fill: rgba(64,64,64,1); font-family: Palatino; font-size: 12px; " text-rendering="auto" clip-path="url(#clip-0)">200</text></g><line x1="54" y1="174.23" x2="56" y2="174.23" style="stroke-width: 1.0;stroke: rgba(128,128,128,1);stroke-opacity: 1.0;" transform="matrix(1,0,0,1,0,0)" clip-path="url(#clip-0)"/><g transform="matrix(1,0,0,1,0,0)"><text x="32" y="152.39" style="fill: rgba(64,64,64,1); font-family: Palatino; font-size: 12px; " text-rendering="auto" clip-path="url(#clip-0)">225</text></g><line x1="54" y1="149.12" x2="56" y2="149.12" style="stroke-width: 1.0;stroke: rgba(128,128,128,1);stroke-opacity: 1.0;" transform="matrix(1,0,0,1,0,0)" clip-path="url(#clip-0)"/><g transform="matrix(1,0,0,1,0,0)"><text x="32" y="127.28" style="fill: rgba(64,64,64,1); font-family: Palatino; font-size: 12px; " text-rendering="auto" clip-path="url(#clip-0)">250</text></g><line x1="54" y1="124.01" x2="56" y2="124.01" style="stroke-width: 1.0;stroke: rgba(128,128,128,1);stroke-opacity: 1.0;" transform="matrix(1,0,0,1,0,0)" clip-path="url(#clip-0)"/><g transform="matrix(1,0,0,1,0,0)"><text x="32" y="102.17" style="fill: rgba(64,64,64,1); font-family: Palatino; font-size: 12px; " text-rendering="auto" clip-path="url(#clip-0)">275</text></g><line x1="54" y1="98.89" x2="56" y2="98.89" style="stroke-width: 1.0;stroke: rgba(128,128,128,1);stroke-opacity: 1.0;" transform="matrix(1,0,0,1,0,0)" clip-path="url(#clip-0)"/><g transform="matrix(1,0,0,1,0,0)"><text x="32" y="77.05" style="fill: rgba(64,64,64,1); font-family: Palatino; font-size: 12px; " text-rendering="auto" clip-path="url(#clip-0)">300</text></g><line x1="54" y1="73.78" x2="56" y2="73.78" style="stroke-width: 1.0;stroke: rgba(128,128,128,1);stroke-opacity: 1.0;" transform="matrix(1,0,0,1,0,0)" clip-path="url(#clip-0)"/><g transform="matrix(1,0,0,1,0,0)"><text x="32" y="51.94" style="fill: rgba(64,64,64,1); font-family: Palatino; font-size: 12px; " text-rendering="auto" clip-path="url(#clip-0)">325</text></g><line x1="54" y1="48.67" x2="56" y2="48.67" style="stroke-width: 1.0;stroke: rgba(128,128,128,1);stroke-opacity: 1.0;" transform="matrix(1,0,0,1,0,0)" clip-path="url(#clip-0)"/><g transform="matrix(0,-1,1,0,-169.200684,207.799316)"><text x="-18.2" y="192.32" style="fill: rgba(64,64,64,1); font-family: Palatino; font-size: 14px; font-weight: bold; " text-rendering="auto" clip-path="url(#clip-1)">US cents/lb</text></g><line x1="100.32" y1="48" x2="100.32" y2="329" style="stroke-width: 0.5;stroke: rgba(255,0,0,1);stroke-opacity: 1.0;stroke-dasharray: 2.0, 2.0;" transform="matrix(1,0,0,1,0,0)" clip-path="url(#clip-2)"/><line x1="155" y1="48" x2="155" y2="329" style="stroke-width: 0.5;stroke: rgba(255,0,0,1);stroke-opacity: 1.0;stroke-dasharray: 2.0, 2.0;" transform="matrix(1,0,0,1,0,0)" clip-path="url(#clip-2)"/><line x1="209.69" y1="48" x2="209.69" y2="329" style="stroke-width: 0.5;stroke: rgba(255,0,0,1);stroke-opacity: 1.0;stroke-dasharray: 2.0, 2.0;" transform="matrix(1,0,0,1,0,0)" clip-path="url(#clip-2)"/><line x1="263.9" y1="48" x2="263.9" y2="329" style="stroke-width: 0.5;stroke: rgba(255,0,0,1);stroke-opacity: 1.0;stroke-dasharray: 2.0, 2.0;" transform="matrix(1,0,0,1,0,0)" clip-path="url(#clip-2)"/><line x1="318.58" y1="48" x2="318.58" y2="329" style="stroke-width: 0.5;stroke: rgba(255,0,0,1);stroke-opacity: 1.0;stroke-dasharray: 2.0, 2.0;" transform="matrix(1,0,0,1,0,0)" clip-path="url(#clip-2)"/><line x1="373.28" y1="48" x2="373.28" y2="329" style="stroke-width: 0.5;stroke: rgba(255,0,0,1);stroke-opacity: 1.0;stroke-dasharray: 2.0, 2.0;" transform="matrix(1,0,0,1,0,0)" clip-path="url(#clip-2)"/><line x1="427.94" y1="48" x2="427.94" y2="329" style="stroke-width: 0.5;stroke: rgba(255,0,0,1);stroke-opacity: 1.0;stroke-dasharray: 2.0, 2.0;" transform="matrix(1,0,0,1,0,0)" clip-path="url(#clip-2)"/><line x1="482.61" y1="48" x2="482.61" y2="329" style="stroke-width: 0.5;stroke: rgba(255,0,0,1);stroke-opacity: 1.0;stroke-dasharray: 2.0, 2.0;" transform="matrix(1,0,0,1,0,0)" clip-path="url(#clip-2)"/><line x1="537.31" y1="48" x2="537.31" y2="329" style="stroke-width: 0.5;stroke: rgba(255,0,0,1);stroke-opacity: 1.0;stroke-dasharray: 2.0, 2.0;" transform="matrix(1,0,0,1,0,0)" clip-path="url(#clip-2)"/><line x1="60" y1="324.91" x2="588" y2="324.91" style="stroke-width: 0.5;stroke: rgba(255,0,0,1);stroke-opacity: 1.0;stroke-dasharray: 2.0, 2.0;" transform="matrix(1,0,0,1,0,0)" clip-path="url(#clip-2)"/><line x1="60" y1="299.79" x2="588" y2="299.79" style="stroke-width: 0.5;stroke: rgba(255,0,0,1);stroke-opacity: 1.0;stroke-dasharray: 2.0, 2.0;" transform="matrix(1,0,0,1,0,0)" clip-path="url(#clip-2)"/><line x1="60" y1="274.68" x2="588" y2="274.68" style="stroke-width: 0.5;stroke: rgba(255,0,0,1);stroke-opacity: 1.0;stroke-dasharray: 2.0, 2.0;" transform="matrix(1,0,0,1,0,0)" clip-path="url(#clip-2)"/><line x1="60" y1="249.57" x2="588" y2="249.57" style="stroke-width: 0.5;stroke: rgba(255,0,0,1);stroke-opacity: 1.0;stroke-dasharray: 2.0, 2.0;" transform="matrix(1,0,0,1,0,0)" clip-path="url(#clip-2)"/><line x1="60" y1="224.46" x2="588" y2="224.46" style="stroke-width: 0.5;stroke: rgba(255,0,0,1);stroke-opacity: 1.0;stroke-dasharray: 2.0, 2.0;" transform="matrix(1,0,0,1,0,0)" clip-path="url(#clip-2)"/><line x1="60" y1="199.34" x2="588" y2="199.34" style="stroke-width: 0.5;stroke: rgba(255,0,0,1);stroke-opacity: 1.0;stroke-dasharray: 2.0, 2.0;" transform="matrix(1,0,0,1,0,0)" clip-path="url(#clip-2)"/><line x1="60" y1="174.23" x2="588" y2="174.23" style="stroke-width: 0.5;stroke: rgba(255,0,0,1);stroke-opacity: 1.0;stroke-dasharray: 2.0, 2.0;" transform="matrix(1,0,0,1,0,0)" clip-path="url(#clip-2)"/><line x1="60" y1="149.12" x2="588" y2="149.12" style="stroke-width: 0.5;stroke: rgba(255,0,0,1);stroke-opacity: 1.0;stroke-dasharray: 2.0, 2.0;" transform="matrix(1,0,0,1,0,0)" clip-path="url(#clip-2)"/><line x1="60" y1="124.01" x2="588" y2="124.01" style="stroke-width: 0.5;stroke: rgba(255,0,0,1);stroke-opacity: 1.0;stroke-dasharray: 2.0, 2.0;" transform="matrix(1,0,0,1,0,0)" clip-path="url(#clip-2)"/><line x1="60" y1="98.89" x2="588" y2="98.89" style="stroke-width: 0.5;stroke: rgba(255,0,0,1);stroke-opacity: 1.0;stroke-dasharray: 2.0, 2.0;" transform="matrix(1,0,0,1,0,0)" clip-path="url(#clip-2)"/><line x1="60" y1="73.78" x2="588" y2="73.78" style="stroke-width: 0.5;stroke: rgba(255,0,0,1);stroke-opacity: 1.0;stroke-dasharray: 2.0, 2.0;" transform="matrix(1,0,0,1,0,0)" clip-path="url(#clip-2)"/><line x1="60" y1="48.67" x2="588" y2="48.67" style="stroke-width: 0.5;stroke: rgba(255,0,0,1);stroke-opacity: 1.0;stroke-dasharray: 2.0, 2.0;" transform="matrix(1,0,0,1,0,0)" clip-path="url(#clip-2)"/><g style="stroke-width: 3.0;stroke: rgba(0,92,165,1);stroke-opacity: 1.0;; fill: none" transform="matrix(1,0,0,1,0,0)" clip-path="url(#clip-2)"><path d="M 60 231.73 L 73.89 240.18 L 86.44 239.55 L 100.32 239.4 L 113.76 238.71 L 127.66 222.09 L 141.1 209.16 L 155 199.24 L 168.89 186.49 L 182.33 183.84 L 196.25 167.28 L 209.69 152.62 L 223.59 136.01 L 237.48 112.54 L 250.03 99.8 L 263.9 88.27 L 277.35 96.16 L 291.24 111.43 L 304.69 118.08 L 318.58 113.57 L 332.47 112.56 L 345.92 137.33 L 359.83 138.82 L 373.28 146.88 L 387.17 146.61 L 401.06 162.09 L 414.06 185.5 L 427.94 192.56 L 441.38 197.84 L 455.28 214.48 L 468.72 191.11 L 482.61 204.6 L 496.51 198.98 L 509.95 203.93 L 523.87 218.71 L 537.31 224.88 L 551.2 220.16 L 565.1 229.59 L 577.65 233.06"/></g><g style="stroke-width: 3.0;stroke: rgba(0,55,122,1);stroke-opacity: 1.0;; fill: none" transform="matrix(1,0,0,1,0,0)" clip-path="url(#clip-2)"><path d="M 60 312.19 L 73.89 314.49 L 86.44 316.23 L 100.32 312.64 L 113.76 312.39 L 127.66 305.1 L 141.1 296.61 L 155 296.36 L 168.89 298.92 L 182.33 294.69 L 196.25 288.34 L 209.69 286.03 L 223.59 278.68 L 237.48 270.13 L 250.03 263.27 L 263.9 263.29 L 277.35 257.85 L 291.24 264.12 L 304.69 271.31 L 318.58 271.96 L 332.47 278.6 L 345.92 286.09 L 359.83 288.97 L 373.28 287.09 L 387.17 290.56 L 401.06 286.04 L 414.06 283.35 L 427.94 282.91 L 441.38 277.88 L 455.28 279.95 L 468.72 278.56 L 482.61 278.58 L 496.51 280.06 L 509.95 280.05 L 523.87 287.42 L 537.31 288.8 L 551.2 285.88 L 565.1 280.3 L 577.65 277.47"/></g><g style="stroke-width: 3.0;stroke: rgba(81,176,86,1);stroke-opacity: 1.0;; fill: none" transform="matrix(1,0,0,1,0,0)" clip-path="url(#clip-2)"><path d="M 60 304.9 L 73.89 306.95 L 86.44 307.58 L 100.32 303.22 L 113.76 304.11 L 127.66 297.86 L 141.1 289.48 L 155 292.08 L 168.89 293.49 L 182.33 289.48 L 196.25 282.68 L 209.69 280.62 L 223.59 273.59 L 237.48 265.29 L 250.03 256.47 L 263.9 257.23 L 277.35 252.6 L 291.24 256.65 L 304.69 261.89 L 318.58 262.56 L 332.47 268.59 L 345.92 276.59 L 359.83 277.45 L 373.28 276.28 L 387.17 277.98 L 401.06 272.74 L 414.06 271.1 L 427.94 272.87 L 441.38 267.77 L 455.28 268.96 L 468.72 267.59 L 482.61 268.13 L 496.51 269.71 L 509.95 270.19 L 523.87 277.02 L 537.31 278.11 L 551.2 274.99 L 565.1 270.63 L 577.65 268.39"/></g><g style="stroke-width: 3.0;stroke: rgba(1,62,29,1);stroke-opacity: 1.0;; fill: none" transform="matrix(1,0,0,1,0,0)" clip-path="url(#clip-2)"><path d="M 60 242.87 L 73.89 250 L 86.44 248.35 L 100.32 248.49 L 113.76 247.11 L 127.66 231.29 L 141.1 217.56 L 155 211.19 L 168.89 199.19 L 182.33 198.96 L 196.25 183.65 L 209.69 169.96 L 223.59 154.37 L 237.48 127.02 L 250.03 112.98 L 263.9 100.5 L 277.35 105.26 L 291.24 123.41 L 304.69 128.34 L 318.58 124.18 L 332.47 118.34 L 345.92 139.8 L 359.83 137.32 L 373.28 145.31 L 387.17 145.89 L 401.06 158.76 L 414.06 182.24 L 427.94 193.42 L 441.38 200.18 L 455.28 218.26 L 468.72 198.36 L 482.61 214.36 L 496.51 207.85 L 509.95 213.21 L 523.87 226.21 L 537.31 233.81 L 551.2 229.31 L 565.1 237.89 L 577.65 240.92"/></g><g style="stroke-width: 3.0;stroke: rgba(149,201,136,1);stroke-opacity: 1.0;; fill: none" transform="matrix(1,0,0,1,0,0)" clip-path="url(#clip-2)"><path d="M 60 215.52 L 73.89 216.56 L 86.44 209.89 L 100.32 204.82 L 113.76 200.97 L 127.66 183.37 L 141.1 171.01 L 155 162.59 L 168.89 151.42 L 182.33 156.51 L 196.25 140.6 L 209.69 125.84 L 223.59 110.17 L 237.48 85.95 L 250.03 81.75 L 263.9 73.66 L 277.35 82.73 L 291.24 98.91 L 304.69 105.9 L 318.58 103.47 L 332.47 99.01 L 345.92 126.2 L 359.83 128.94 L 373.28 137.36 L 387.17 136.85 L 401.06 149.96 L 414.06 172.97 L 427.94 182.82 L 441.38 189.65 L 455.28 205.68 L 468.72 183.82 L 482.61 199.52 L 496.51 195.35 L 509.95 201.03 L 523.87 214.5 L 537.31 221.7 L 551.2 217.13 L 565.1 225 L 577.65 224.68"/></g><g style="stroke-width: 3.0;stroke: rgba(24,123,58,1);stroke-opacity: 1.0;; fill: none" transform="matrix(1,0,0,1,0,0)" clip-path="url(#clip-2)"><path d="M 60 166.69 L 73.89 169.5 L 86.44 168.5 L 100.32 174.23 L 113.76 173.69 L 127.66 149.63 L 141.1 138.55 L 155 130.05 L 168.89 126.25 L 182.33 144.08 L 196.25 130.01 L 209.69 111.98 L 223.59 93.99 L 237.48 77.36 L 250.03 73.1 L 263.9 60.77 L 277.35 71.6 L 291.24 85.89 L 304.69 88.64 L 318.58 86.87 L 332.47 86.3 L 345.92 116.31 L 359.83 116.98 L 373.28 122.4 L 387.17 118.07 L 401.06 129.89 L 414.06 151.29 L 427.94 159.71 L 441.38 166.88 L 455.28 189.63 L 468.72 171.66 L 482.61 187.15 L 496.51 184.18 L 509.95 192.92 L 523.87 204.29 L 537.31 209.99 L 551.2 205.18 L 565.1 212.7 L 577.65 212.87"/></g><g style="stroke-width: 3.0;stroke: rgba(255,0,0,1);stroke-opacity: 1.0;; fill: none" transform="matrix(1,0,0,1,0,0)" clip-path="url(#clip-2)"><path d="M 60 247.76 L 73.89 251.21 L 86.44 249.27 L 100.32 247.67 L 113.76 246.45 L 127.66 232.29 L 141.1 221.03 L 155 216.96 L 168.89 210.78 L 182.33 212.84 L 196.25 200.45 L 209.69 190.04 L 223.59 176.89 L 237.48 158.13 L 250.03 149.79 L 263.9 142.85 L 277.35 146.14 L 291.24 158.58 L 304.69 163.82 L 318.58 161.99 L 332.47 161.13 L 345.92 180.36 L 359.83 180.6 L 373.28 185.26 L 387.17 185.38 L 401.06 192.02 L 414.06 206.61 L 427.94 213.95 L 441.38 216.74 L 455.28 229.17 L 468.72 215.35 L 482.61 225.96 L 496.51 223.17 L 509.95 227.35 L 523.87 238.17 L 537.31 243.23 L 551.2 239.14 L 565.1 243.03 L 577.65 243.16"/></g><rect x="60" y="48" width="528" height="281" style="stroke-width: 0.5;stroke: rgba(0,0,0,1);stroke-opacity: 1.0;; fill: none" transform="matrix(1,0,0,1,0,0)" clip-path="url(#clip-0)"/></svg>
